<?xml version="1.0" encoding="UTF-8" standalone="no"?>
<!DOCTYPE svg PUBLIC "-//W3C//DTD SVG 1.1//EN" "http://www.w3.org/Graphics/SVG/1.1/DTD/svg11.dtd">
<svg width="100%" height="100%" viewBox="0 0 1877 1921" version="1.1" xmlns="http://www.w3.org/2000/svg" xmlns:xlink="http://www.w3.org/1999/xlink" xml:space="preserve" xmlns:serif="http://www.serif.com/" style="fill-rule:evenodd;clip-rule:evenodd;stroke-linejoin:round;stroke-miterlimit:2;">
    <g transform="matrix(4.16667,0,0,4.16667,-1195,-696)">
        <g>
            <g id="Layer-1" serif:id="Layer 1">
                <g transform="matrix(1,0,0,1,350.291,408.801)">
                    <path d="M0,125.928C15.391,125.928 22.562,117.183 26.235,117.183C29.383,117.183 30.957,119.981 30.957,125.054L38.478,125.054L38.478,89.199C38.478,83.252 39.527,80.979 41.102,79.405C42.676,77.83 44.774,77.131 48.098,76.956L48.098,68.211L4.372,68.211L4.372,76.956C16.441,77.481 21.863,85.176 21.863,95.146C21.863,106.864 15.041,115.434 2.798,115.434C-16.615,115.434 -27.109,91.648 -27.109,56.143C-27.109,22.037 -14.342,8.745 1.224,8.745C19.414,8.745 29.733,26.41 29.733,45.474L37.604,45.474L37.604,0.875L30.083,0.875C29.908,5.422 27.984,6.996 25.011,6.996C21.863,6.996 19.764,4.897 14.517,2.798C9.794,0.875 4.897,0 -0.175,0C-34.63,0 -49.846,30.083 -49.846,61.215C-49.846,82.203 -44.075,99.518 -33.756,111.061C-25.361,120.331 -13.817,125.928 0,125.928M74.434,124.179L147.018,124.179L147.018,115.084L136.699,115.084C129.353,115.084 126.205,113.86 123.931,111.586C121.483,109.313 120.083,105.989 120.083,98.469L120.083,27.459C120.083,19.939 121.483,16.615 123.931,14.342C126.205,12.068 129.353,10.844 136.699,10.844L147.018,10.844L147.018,1.749L74.434,1.749L74.434,10.844L84.754,10.844C92.099,10.844 95.248,12.068 97.521,14.342C99.97,16.615 101.369,19.939 101.369,27.459L101.369,98.469C101.369,105.989 99.97,109.313 97.521,111.586C95.248,113.86 92.099,115.084 84.754,115.084L74.434,115.084L74.434,124.179ZM251.854,78.705C249.93,94.446 241.185,107.563 224.745,107.563C196.761,107.563 188.016,79.055 188.016,54.044C188.016,23.612 200.783,8.745 218.623,8.745C237.687,8.745 248.356,26.41 248.356,45.474L256.227,45.474L256.227,0.875L248.706,0.875C248.531,5.422 246.607,6.996 243.634,6.996C240.486,6.996 238.212,4.897 232.965,2.798C228.243,0.875 223.52,0 217.574,0C185.917,0 169.651,30.782 169.651,63.838C169.651,97.594 187.141,125.928 219.498,125.928C245.733,125.928 258.326,103.541 259.725,78.705L251.854,78.705ZM271.967,124.179L308.346,124.179L308.346,115.434L307.122,115.434C303.274,115.434 300.651,114.21 298.901,112.111C297.327,110.362 296.453,108.088 296.453,104.765C296.453,102.317 297.152,98.819 298.552,94.446L299.951,90.074L335.805,90.074L337.03,94.096C338.429,98.469 340.003,103.366 340.003,106.164C340.003,112.461 336.33,115.434 328.809,115.434L328.809,124.179L373.409,124.179L373.409,115.434C365.014,114.734 361.866,111.061 357.318,97.244L325.311,0.875L318.315,0.875L288.932,95.845C284.91,109.138 279.488,114.909 271.967,115.434L271.967,124.179ZM302.574,81.328L317.616,33.056L333.007,81.328L302.574,81.328Z" style="fill:rgb(247,233,209);fill-rule:nonzero;"/>
                </g>
                <g transform="matrix(1,0,0,1,597.067,175.604)">
                    <path d="M0,212.431C-11.381,212.413 -15.723,210.995 -18.734,208.859C-19.049,208.632 -19.329,208.421 -19.609,208.177C-19.4,207.879 -19.172,207.581 -18.944,207.301C-16.563,204.465 -12.746,201.978 -1.751,199.037L133.607,162.987L131.349,154.531L-3.992,190.58C-14.987,193.504 -19.557,193.259 -23.024,191.964C-23.374,191.841 -23.707,191.701 -24.022,191.543C-23.899,191.211 -23.777,190.861 -23.619,190.528C-22.061,187.166 -19.014,183.77 -9.157,178.097L112.264,108.238L107.887,100.657L-13.517,170.516C-23.374,176.189 -27.856,177.117 -31.533,176.766C-31.9,176.731 -32.268,176.679 -32.618,176.626C-32.583,176.259 -32.548,175.891 -32.478,175.541C-31.848,171.899 -29.782,167.819 -21.728,159.783L77.475,60.878L71.294,54.68L-27.908,153.585C-35.963,161.621 -40.042,163.67 -43.684,164.3C-44.051,164.353 -44.419,164.405 -44.769,164.423C-44.839,164.073 -44.892,163.722 -44.927,163.337C-45.26,159.661 -44.314,155.196 -38.606,145.339L31.603,24.145L24.039,19.75L-46.187,140.961C-51.878,150.801 -55.292,153.848 -58.653,155.388C-58.986,155.546 -59.336,155.669 -59.669,155.791C-59.827,155.476 -59.967,155.143 -60.089,154.793C-61.367,151.327 -61.612,146.757 -58.653,135.761L-22.201,0.526L-30.657,-1.75L-67.11,133.485C-70.069,144.481 -72.573,148.298 -75.409,150.661C-75.707,150.889 -75.987,151.116 -76.285,151.327C-76.53,151.046 -76.757,150.766 -76.967,150.451C-79.086,147.422 -80.504,143.08 -80.487,131.699L-80.294,-8.351L-89.048,-8.369L-89.241,131.699C-89.258,143.08 -90.694,147.405 -92.83,150.434C-93.04,150.731 -93.268,151.011 -93.513,151.292C-93.811,151.081 -94.091,150.871 -94.388,150.626C-97.225,148.263 -99.711,144.428 -102.635,133.433L-138.702,-1.908L-147.159,0.351L-111.109,135.691C-108.168,146.687 -108.43,151.256 -109.708,154.723C-109.848,155.056 -109.988,155.388 -110.146,155.721C-110.479,155.599 -110.811,155.476 -111.161,155.318C-114.506,153.76 -117.92,150.696 -123.593,140.839L-193.434,19.435L-201.033,23.795L-131.174,145.216C-125.501,155.073 -124.573,159.538 -124.906,163.232C-124.941,163.6 -124.993,163.95 -125.063,164.318C-125.431,164.283 -125.781,164.23 -126.149,164.178C-129.79,163.547 -133.87,161.464 -141.906,153.41L-240.794,54.224L-246.992,60.405L-148.104,159.59C-140.068,167.662 -138.02,171.741 -137.389,175.383C-137.319,175.751 -137.284,176.101 -137.249,176.469C-137.617,176.521 -137.967,176.574 -138.335,176.609C-142.029,176.941 -146.494,175.996 -156.333,170.306L-277.545,100.079L-281.922,107.66L-160.728,177.869C-150.888,183.577 -147.842,186.991 -146.301,190.353C-146.143,190.686 -146.021,191.018 -145.898,191.368C-146.213,191.526 -146.546,191.666 -146.896,191.788C-150.363,193.067 -154.933,193.312 -165.91,190.353L-301.164,153.9L-303.44,162.339L-168.187,198.792C-157.209,201.768 -153.392,204.272 -151.028,207.108C-150.783,207.389 -150.573,207.686 -150.363,207.984C-150.643,208.212 -150.923,208.439 -151.238,208.667C-154.25,210.785 -158.592,212.204 -169.973,212.186L-310.04,211.976L-310.058,220.73L-310.04,220.73L-310.04,220.8L140.05,220.8L140.05,218.752L140.068,212.641L0,212.431Z" style="fill:rgb(247,233,209);fill-rule:nonzero;"/>
                </g>
                <g transform="matrix(1,0,0,1,737.118,546.843)">
                    <path d="M0,8.824L0,0.196L-450.091,0L-450.108,8.754L-450.091,8.754L-450.091,8.824L0,8.824Z" style="fill:rgb(247,233,209);fill-rule:nonzero;"/>
                </g>
                <g transform="matrix(1,0,0,1,300.303,569.781)">
                    <path d="M0,19.563C-2.099,17.216 -3.272,13.695 -3.272,9.426C-3.272,3.095 -0.178,-3.023 6.829,-3.023C7.86,-3.023 8.856,-2.844 9.816,-2.454C10.884,-2.027 11.311,-1.6 11.95,-1.6C12.556,-1.6 12.946,-1.919 12.982,-2.844L14.512,-2.844L14.512,6.225L12.911,6.225C12.911,2.348 10.813,-1.244 7.113,-1.244C3.948,-1.244 1.352,1.459 1.352,8.395C1.352,15.616 3.485,20.453 7.434,20.453C9.923,20.453 11.311,18.709 11.311,16.327C11.311,14.299 10.208,12.734 7.754,12.627L7.754,10.849L16.646,10.849L16.646,12.627C15.97,12.664 15.543,12.805 15.223,13.126C14.902,13.446 14.689,13.908 14.689,15.118L14.689,22.409L13.16,22.409C13.16,21.377 12.84,20.808 12.199,20.808C11.453,20.808 9.994,22.586 6.864,22.586C4.055,22.586 1.707,21.449 0,19.563" style="fill:rgb(247,233,209);fill-rule:nonzero;"/>
                </g>
                <g transform="matrix(1,0,0,1,321.284,568.964)">
                    <path d="M0,21.198L2.099,21.198C3.593,21.198 4.232,20.949 4.695,20.487C5.193,20.024 5.478,19.348 5.478,17.819L5.478,3.379C5.478,1.849 5.193,1.174 4.695,0.711C4.232,0.249 3.593,0 2.099,0L0,0L0,-1.85L14.761,-1.85L14.761,0L12.662,0C11.169,0 10.528,0.249 10.065,0.711C9.568,1.174 9.283,1.849 9.283,3.379L9.283,17.819C9.283,19.348 9.568,20.024 10.065,20.487C10.528,20.949 11.169,21.198 12.662,21.198L14.761,21.198L14.761,23.048L0,23.048L0,21.198Z" style="fill:rgb(247,233,209);fill-rule:nonzero;"/>
                </g>
                <g transform="matrix(1,0,0,1,340.415,568.893)">
                    <path d="M0,21.341L0.179,21.341C1.21,21.341 1.637,21.163 1.957,20.843C2.276,20.523 2.49,20.061 2.49,18.851L2.49,2.489C2.49,1.28 2.276,0.818 1.957,0.498C1.637,0.178 1.21,0 0.179,0L0,0L0,-1.778L8.537,-1.778L8.537,0L8.359,0C7.505,0 7.078,0.178 6.759,0.498C6.438,0.818 6.225,1.28 6.225,2.489L6.225,9.355L14.405,9.355L14.405,2.489C14.405,1.28 14.192,0.818 13.872,0.498C13.552,0.178 13.125,0 12.271,0L12.094,0L12.094,-1.778L20.63,-1.778L20.63,0L20.452,0C19.421,0 18.994,0.178 18.674,0.498C18.354,0.818 18.141,1.28 18.141,2.489L18.141,18.851C18.141,20.061 18.354,20.523 18.674,20.843C18.994,21.163 19.421,21.341 20.452,21.341L20.63,21.341L20.63,23.119L12.094,23.119L12.094,21.341L12.271,21.341C13.125,21.341 13.552,21.163 13.872,20.843C14.192,20.523 14.405,20.061 14.405,18.851L14.405,11.133L6.225,11.133L6.225,18.851C6.225,20.061 6.438,20.523 6.759,20.843C7.078,21.163 7.505,21.341 8.359,21.341L8.537,21.341L8.537,23.119L0,23.119L0,21.341Z" style="fill:rgb(247,233,209);fill-rule:nonzero;"/>
                </g>
                <g transform="matrix(1,0,0,1,374.877,575.651)">
                    <path d="M0,7.647L-3.13,-2.17L-6.189,7.647L0,7.647ZM-12.414,14.583C-10.884,14.476 -9.781,13.302 -8.964,10.599L-2.988,-8.714L-1.565,-8.714L4.943,10.883C5.868,13.693 6.509,14.44 8.216,14.583L8.216,16.361L-0.854,16.361L-0.854,14.583C0.676,14.583 1.423,13.978 1.423,12.698C1.423,12.128 1.103,11.132 0.817,10.243L0.568,9.425L-6.723,9.425L-7.007,10.314C-7.292,11.204 -7.434,11.915 -7.434,12.413C-7.434,13.088 -7.256,13.551 -6.937,13.907C-6.58,14.334 -6.047,14.583 -5.265,14.583L-5.016,14.583L-5.016,16.361L-12.414,16.361L-12.414,14.583Z" style="fill:rgb(247,233,209);fill-rule:nonzero;"/>
                </g>
                <g transform="matrix(1,0,0,1,385.222,569.071)">
                    <path d="M0,21.163C0.854,21.163 1.458,20.879 1.921,20.451C2.383,19.989 2.668,19.385 2.668,17.962L2.668,1.529L2.454,1.245C1.921,0.533 1.245,-0.036 0,-0.178L0,-1.956L5.335,-1.956L14.938,14.938L14.938,3.023C14.938,1.601 14.654,0.996 14.191,0.533C13.729,0.106 13.125,-0.178 11.915,-0.178L11.915,-1.956L19.562,-1.956L19.562,-0.178C18.709,-0.178 18.104,0.106 17.642,0.533C17.18,0.996 16.895,1.601 16.895,3.023L16.895,23.119L15.472,23.119L4.624,4.055L4.624,17.962C4.624,19.385 4.908,19.989 5.371,20.451C5.833,20.879 6.437,21.163 7.647,21.163L7.647,22.941L0,22.941L0,21.163Z" style="fill:rgb(247,233,209);fill-rule:nonzero;"/>
                </g>
                <g transform="matrix(1,0,0,1,410.543,569.781)">
                    <path d="M0,19.563C-2.099,17.216 -3.272,13.695 -3.272,9.426C-3.272,3.095 -0.178,-3.023 6.829,-3.023C7.86,-3.023 8.856,-2.844 9.816,-2.454C10.884,-2.027 11.311,-1.6 11.95,-1.6C12.556,-1.6 12.946,-1.919 12.982,-2.844L14.512,-2.844L14.512,6.225L12.911,6.225C12.911,2.348 10.813,-1.244 7.113,-1.244C3.948,-1.244 1.352,1.459 1.352,8.395C1.352,15.616 3.485,20.453 7.434,20.453C9.923,20.453 11.311,18.709 11.311,16.327C11.311,14.299 10.208,12.734 7.754,12.627L7.754,10.849L16.646,10.849L16.646,12.627C15.97,12.664 15.543,12.805 15.223,13.126C14.902,13.446 14.689,13.908 14.689,15.118L14.689,22.409L13.16,22.409C13.16,21.377 12.84,20.808 12.199,20.808C11.453,20.808 9.994,22.586 6.864,22.586C4.055,22.586 1.707,21.449 0,19.563" style="fill:rgb(247,233,209);fill-rule:nonzero;"/>
                </g>
                <g transform="matrix(1,0,0,1,441.02,575.651)">
                    <path d="M0,7.647L-3.13,-2.17L-6.189,7.647L0,7.647ZM-12.414,14.583C-10.884,14.476 -9.781,13.302 -8.964,10.599L-2.988,-8.714L-1.565,-8.714L4.943,10.883C5.868,13.693 6.509,14.44 8.216,14.583L8.216,16.361L-0.854,16.361L-0.854,14.583C0.676,14.583 1.423,13.978 1.423,12.698C1.423,12.128 1.103,11.132 0.817,10.243L0.568,9.425L-6.723,9.425L-7.007,10.314C-7.292,11.204 -7.435,11.915 -7.435,12.413C-7.435,13.088 -7.256,13.551 -6.937,13.907C-6.58,14.334 -6.047,14.583 -5.265,14.583L-5.016,14.583L-5.016,16.361L-12.414,16.361L-12.414,14.583Z" style="fill:rgb(247,233,209);fill-rule:nonzero;"/>
                </g>
                <g transform="matrix(1,0,0,1,471.656,568.964)">
                    <path d="M0,21.198L2.099,21.198C3.593,21.198 4.232,20.949 4.695,20.487C5.193,20.024 5.478,19.348 5.478,17.819L5.478,3.379C5.478,1.849 5.193,1.174 4.695,0.711C4.232,0.249 3.593,0 2.099,0L0,0L0,-1.85L14.761,-1.85L14.761,0L12.662,0C11.168,0 10.528,0.249 10.065,0.711C9.568,1.174 9.283,1.849 9.283,3.379L9.283,17.819C9.283,19.348 9.568,20.024 10.065,20.487C10.528,20.949 11.168,21.198 12.662,21.198L14.761,21.198L14.761,23.048L0,23.048L0,21.198Z" style="fill:rgb(247,233,209);fill-rule:nonzero;"/>
                </g>
                <g transform="matrix(1,0,0,1,491.499,569.071)">
                    <path d="M0,21.163C0.854,21.163 1.458,20.879 1.921,20.451C2.383,19.989 2.668,19.385 2.668,17.962L2.668,1.529L2.454,1.245C1.921,0.533 1.245,-0.036 0,-0.178L0,-1.956L5.335,-1.956L14.938,14.938L14.938,3.023C14.938,1.601 14.654,0.996 14.191,0.533C13.729,0.106 13.125,-0.178 11.915,-0.178L11.915,-1.956L19.562,-1.956L19.562,-0.178C18.709,-0.178 18.104,0.106 17.642,0.533C17.18,0.996 16.895,1.601 16.895,3.023L16.895,23.119L15.472,23.119L4.624,4.055L4.624,17.962C4.624,19.385 4.908,19.989 5.371,20.451C5.833,20.879 6.437,21.163 7.647,21.163L7.647,22.941L0,22.941L0,21.163Z" style="fill:rgb(247,233,209);fill-rule:nonzero;"/>
                </g>
                <g transform="matrix(1,0,0,1,514.969,576.362)">
                    <path d="M0,6.402L1.601,6.402C1.778,11.275 4.873,14.227 8.714,14.227C11.453,14.227 13.089,12.414 13.089,9.995C13.089,3.379 0,6.651 0,-2.49C0,-6.865 3.557,-9.604 7.646,-9.604C9.247,-9.604 10.386,-9.176 11.311,-8.821C11.986,-8.536 12.662,-8.252 13.195,-8.252C13.693,-8.252 14.049,-8.536 14.049,-9.425L15.649,-9.425L15.649,-0.356L14.049,-0.356C14.049,-4.517 12.129,-7.825 8.003,-7.825C5.264,-7.825 3.628,-6.011 3.628,-3.912C3.628,2.668 16.717,-0.605 16.717,8.537C16.717,13.267 13.16,16.006 9.426,16.006C7.042,16.006 5.441,15.436 4.268,14.974C3.628,14.725 3.059,14.476 2.667,14.476C2.099,14.476 1.564,14.832 1.564,15.828L0,15.828L0,6.402Z" style="fill:rgb(247,233,209);fill-rule:nonzero;"/>
                </g>
                <g transform="matrix(1,0,0,1,540.111,568.893)">
                    <path d="M0,21.341L0.534,21.341C1.921,21.341 2.348,21.163 2.668,20.843C2.988,20.523 3.201,20.061 3.201,18.851L3.201,-0.178L2.988,-0.178C1.281,-0.178 -0.178,0.427 -1.173,1.458C-2.169,2.454 -2.738,3.877 -2.738,6.225L-2.738,7.113L-4.445,7.113L-4.445,-1.778L14.583,-1.778L14.583,7.113L12.876,7.113L12.876,6.225C12.876,3.877 12.307,2.454 11.312,1.458C10.315,0.427 8.857,-0.178 7.149,-0.178L6.937,-0.178L6.937,18.851C6.937,20.061 7.149,20.523 7.47,20.843C7.79,21.163 8.217,21.341 9.604,21.341L10.138,21.341L10.138,23.119L0,23.119L0,21.341Z" style="fill:rgb(247,233,209);fill-rule:nonzero;"/>
                </g>
                <g transform="matrix(1,0,0,1,559.847,568.964)">
                    <path d="M0,21.198L2.099,21.198C3.593,21.198 4.232,20.949 4.695,20.487C5.193,20.024 5.478,19.348 5.478,17.819L5.478,3.379C5.478,1.849 5.193,1.174 4.695,0.711C4.232,0.249 3.593,0 2.099,0L0,0L0,-1.85L14.761,-1.85L14.761,0L12.662,0C11.168,0 10.528,0.249 10.065,0.711C9.568,1.174 9.283,1.849 9.283,3.379L9.283,17.819C9.283,19.348 9.568,20.024 10.065,20.487C10.528,20.949 11.168,21.198 12.662,21.198L14.761,21.198L14.761,23.048L0,23.048L0,21.198Z" style="fill:rgb(247,233,209);fill-rule:nonzero;"/>
                </g>
                <g transform="matrix(1,0,0,1,584.207,568.893)">
                    <path d="M0,21.341L0.534,21.341C1.921,21.341 2.348,21.163 2.668,20.843C2.988,20.523 3.201,20.061 3.201,18.851L3.201,-0.178L2.988,-0.178C1.281,-0.178 -0.178,0.427 -1.173,1.458C-2.169,2.454 -2.738,3.877 -2.738,6.225L-2.738,7.113L-4.445,7.113L-4.445,-1.778L14.583,-1.778L14.583,7.113L12.876,7.113L12.876,6.225C12.876,3.877 12.307,2.454 11.312,1.458C10.315,0.427 8.857,-0.178 7.149,-0.178L6.937,-0.178L6.937,18.851C6.937,20.061 7.149,20.523 7.47,20.843C7.79,21.163 8.217,21.341 9.604,21.341L10.138,21.341L10.138,23.119L0,23.119L0,21.341Z" style="fill:rgb(247,233,209);fill-rule:nonzero;"/>
                </g>
                <g transform="matrix(1,0,0,1,601.205,592.368)">
                    <path d="M0,-25.253L8.714,-25.253L8.714,-23.475L8.536,-23.475C7.505,-23.475 7.078,-23.297 6.758,-22.977C6.437,-22.657 6.224,-22.194 6.224,-20.985L6.224,-7.967C6.224,-5.976 6.65,-4.837 7.469,-4.09C8.358,-3.273 9.532,-2.846 10.919,-2.846C12.307,-2.846 13.516,-3.273 14.404,-4.09C15.223,-4.837 15.649,-5.976 15.649,-7.967L15.649,-20.274C15.649,-21.696 15.365,-22.301 14.902,-22.764C14.44,-23.19 13.836,-23.475 12.982,-23.475L12.982,-25.253L20.096,-25.253L20.096,-23.475C19.42,-23.475 18.815,-23.226 18.353,-22.764C17.891,-22.301 17.605,-21.696 17.605,-20.274L17.605,-7.789C17.605,-4.837 16.93,-3.201 15.721,-2.027C14.369,-0.711 12.377,0 10.492,0C7.86,0 5.868,-0.747 4.481,-2.027C3.236,-3.201 2.489,-4.837 2.489,-7.789L2.489,-20.985C2.489,-22.194 2.276,-22.657 1.956,-22.977C1.636,-23.297 1.209,-23.475 0.178,-23.475L0,-23.475L0,-25.253Z" style="fill:rgb(247,233,209);fill-rule:nonzero;"/>
                </g>
                <g transform="matrix(1,0,0,1,628.302,568.893)">
                    <path d="M0,21.341L0.534,21.341C1.921,21.341 2.348,21.163 2.668,20.843C2.988,20.523 3.201,20.061 3.201,18.851L3.201,-0.178L2.988,-0.178C1.281,-0.178 -0.178,0.427 -1.173,1.458C-2.169,2.454 -2.738,3.877 -2.738,6.225L-2.738,7.113L-4.445,7.113L-4.445,-1.778L14.583,-1.778L14.583,7.113L12.876,7.113L12.876,6.225C12.876,3.877 12.307,2.454 11.312,1.458C10.315,0.427 8.857,-0.178 7.149,-0.178L6.937,-0.178L6.937,18.851C6.937,20.061 7.149,20.523 7.47,20.843C7.79,21.163 8.217,21.341 9.604,21.341L10.138,21.341L10.138,23.119L0,23.119L0,21.341Z" style="fill:rgb(247,233,209);fill-rule:nonzero;"/>
                </g>
                <g transform="matrix(1,0,0,1,646.189,568.893)">
                    <path d="M0,21.341L0.355,21.341C1.565,21.341 1.992,21.163 2.313,20.843C2.632,20.523 2.846,20.061 2.846,18.851L2.846,2.489C2.846,1.28 2.632,0.818 2.313,0.498C1.992,0.178 1.565,0 0.355,0L0,0L0,-1.778L17.429,-1.778L17.429,6.936L15.722,6.936L15.722,5.976C15.722,3.45 15.188,2.205 14.299,1.316C13.409,0.462 12.2,-0.071 9.675,-0.071L6.58,-0.071L6.58,9.461L6.829,9.461C8.644,9.461 9.639,9.106 10.279,8.465C10.92,7.825 11.275,6.864 11.275,5.015L11.275,4.802L12.982,4.802L12.982,15.721L11.275,15.721L11.275,15.508C11.275,13.658 10.92,12.697 10.279,12.058C9.639,11.417 8.644,11.062 6.829,11.062L6.58,11.062L6.58,21.412L9.853,21.412C12.378,21.412 13.587,20.878 14.477,20.025C15.365,19.136 15.899,17.891 15.899,15.365L15.899,14.049L17.606,14.049L17.606,23.119L0,23.119L0,21.341Z" style="fill:rgb(247,233,209);fill-rule:nonzero;"/>
                </g>
                <g transform="matrix(1,0,0,1,700.549,576.93)">
                    <path d="M0,5.266C0,-0.461 -1.423,-8.392 -5.584,-8.392C-9.248,-8.392 -9.959,-4.196 -9.959,0.001C-9.959,5.728 -8.536,13.66 -4.375,13.66C-0.712,13.66 0,9.462 0,5.266M-14.761,2.811C-14.761,-4.445 -11.204,-10.172 -4.979,-10.172C1.245,-10.172 4.802,-4.445 4.802,2.455C4.802,9.711 1.245,15.438 -4.979,15.438C-11.204,15.438 -14.761,9.711 -14.761,2.811" style="fill:rgb(247,233,209);fill-rule:nonzero;"/>
                </g>
                <g transform="matrix(1,0,0,1,708.903,568.893)">
                    <path d="M0,21.341L0.356,21.341C1.743,21.341 2.17,21.163 2.49,20.843C2.811,20.523 3.023,20.061 3.023,18.851L3.023,2.489C3.023,1.28 2.811,0.818 2.49,0.498C2.17,0.178 1.743,0 0.356,0L0,0L0,-1.778L17.962,-1.778L17.962,6.936L16.255,6.936L16.255,5.976C16.255,3.45 15.722,2.205 14.832,1.316C13.943,0.462 12.733,-0.071 10.208,-0.071L6.759,-0.071L6.759,9.817L7.363,9.817C9.177,9.817 10.173,9.461 10.813,8.82C11.453,8.181 11.809,7.22 11.809,5.37L11.809,5.157L13.517,5.157L13.517,16.076L11.809,16.076L11.809,15.863C11.809,14.014 11.453,13.054 10.813,12.413C10.173,11.773 9.177,11.417 7.363,11.417L6.759,11.417L6.759,18.851C6.759,20.061 7.008,20.487 7.327,20.808C7.647,21.127 8.039,21.341 9.604,21.341L10.138,21.341L10.138,23.119L0,23.119L0,21.341Z" style="fill:rgb(247,233,209);fill-rule:nonzero;"/>
                </g>
                <g transform="matrix(1,0,0,1,315.881,611.923)">
                    <path d="M0,6.402C-0.284,11.453 -2.845,16.006 -8.181,16.006C-14.761,16.006 -18.317,10.244 -18.317,3.379C-18.317,-3.343 -15.01,-9.604 -8.571,-9.604C-7.362,-9.604 -6.401,-9.425 -5.441,-9.035C-4.374,-8.608 -3.912,-8.181 -3.271,-8.181C-2.667,-8.181 -2.276,-8.5 -2.24,-9.425L-0.711,-9.425L-0.711,-0.356L-2.312,-0.356C-2.312,-4.233 -4.481,-7.825 -8.358,-7.825C-11.986,-7.825 -14.583,-4.802 -14.583,1.387C-14.583,6.473 -12.804,12.271 -7.113,12.271C-3.77,12.271 -1.991,9.603 -1.601,6.402L0,6.402Z" style="fill:rgb(247,233,209);fill-rule:nonzero;"/>
                </g>
                <g transform="matrix(1,0,0,1,333.662,612.491)">
                    <path d="M0,5.266C0,-0.461 -1.423,-8.392 -5.584,-8.392C-9.248,-8.392 -9.959,-4.196 -9.959,0.001C-9.959,5.728 -8.536,13.66 -4.375,13.66C-0.712,13.66 0,9.462 0,5.266M-14.761,2.811C-14.761,-4.445 -11.204,-10.172 -4.979,-10.172C1.245,-10.172 4.802,-4.445 4.802,2.455C4.802,9.711 1.245,15.438 -4.979,15.438C-11.204,15.438 -14.761,9.711 -14.761,2.811" style="fill:rgb(247,233,209);fill-rule:nonzero;"/>
                </g>
                <g transform="matrix(1,0,0,1,341.127,604.632)">
                    <path d="M0,21.163C0.854,21.163 1.458,20.879 1.921,20.451C2.383,19.989 2.668,19.385 2.668,17.962L2.668,1.529L2.454,1.245C1.921,0.533 1.245,-0.036 0,-0.178L0,-1.956L5.335,-1.956L14.938,14.938L14.938,3.023C14.938,1.601 14.654,0.996 14.191,0.533C13.729,0.106 13.125,-0.178 11.915,-0.178L11.915,-1.956L19.562,-1.956L19.562,-0.178C18.709,-0.178 18.104,0.106 17.642,0.533C17.18,0.996 16.895,1.601 16.895,3.023L16.895,23.119L15.472,23.119L4.624,4.055L4.624,17.962C4.624,19.385 4.908,19.989 5.371,20.451C5.833,20.879 6.437,21.163 7.647,21.163L7.647,22.941L0,22.941L0,21.163Z" style="fill:rgb(247,233,209);fill-rule:nonzero;"/>
                </g>
                <g transform="matrix(1,0,0,1,367.691,604.454)">
                    <path d="M0,21.341L0.534,21.341C1.921,21.341 2.348,21.163 2.668,20.843C2.988,20.523 3.201,20.061 3.201,18.851L3.201,-0.178L2.988,-0.178C1.281,-0.178 -0.178,0.427 -1.173,1.458C-2.169,2.454 -2.738,3.877 -2.738,6.225L-2.738,7.113L-4.445,7.113L-4.445,-1.778L14.583,-1.778L14.583,7.113L12.876,7.113L12.876,6.225C12.876,3.877 12.307,2.454 11.312,1.458C10.315,0.427 8.857,-0.178 7.149,-0.178L6.937,-0.178L6.937,18.851C6.937,20.061 7.149,20.523 7.47,20.843C7.79,21.163 8.217,21.341 9.604,21.341L10.138,21.341L10.138,23.119L0,23.119L0,21.341Z" style="fill:rgb(247,233,209);fill-rule:nonzero;"/>
                </g>
                <g transform="matrix(1,0,0,1,385.578,604.454)">
                    <path d="M0,21.341L0.355,21.341C1.565,21.341 1.992,21.163 2.313,20.843C2.632,20.523 2.846,20.061 2.846,18.851L2.846,2.489C2.846,1.28 2.632,0.818 2.313,0.498C1.992,0.178 1.565,0 0.355,0L0,0L0,-1.778L17.429,-1.778L17.429,6.936L15.722,6.936L15.722,5.976C15.722,3.45 15.188,2.205 14.299,1.316C13.409,0.462 12.2,-0.071 9.675,-0.071L6.58,-0.071L6.58,9.461L6.829,9.461C8.644,9.461 9.639,9.106 10.279,8.465C10.92,7.825 11.275,6.864 11.275,5.015L11.275,4.802L12.982,4.802L12.982,15.721L11.275,15.721L11.275,15.508C11.275,13.658 10.92,12.697 10.279,12.058C9.639,11.417 8.644,11.062 6.829,11.062L6.58,11.062L6.58,21.412L9.853,21.412C12.378,21.412 13.587,20.878 14.477,20.025C15.365,19.136 15.899,17.891 15.899,15.365L15.899,14.049L17.606,14.049L17.606,23.119L0,23.119L0,21.341Z" style="fill:rgb(247,233,209);fill-rule:nonzero;"/>
                </g>
                <g transform="matrix(1,0,0,1,406.203,604.454)">
                    <path d="M0,21.341C1.316,21.341 2.49,20.594 2.632,18.567L3.521,4.197C3.557,3.522 3.593,2.454 3.593,1.814C3.593,0.889 3.095,0 1.886,0L1.601,0L1.601,-1.778L6.58,-1.778L10.528,13.836L14.405,-1.778L19.385,-1.778L19.385,0L19.242,0C18.176,0 17.429,0.676 17.429,1.885C17.429,2.489 17.5,3.522 17.606,4.624L18.887,18.744C19.064,20.523 19.456,21.341 21.163,21.341L21.163,23.119L13.517,23.119L13.517,21.341L13.658,21.341C15.081,21.341 15.757,20.665 15.757,19.456C15.757,18.922 15.65,17.82 15.544,16.717L14.405,4.197L10.635,19.563L9.212,19.563L5.336,4.233L4.553,17.144C4.518,17.82 4.481,18.887 4.481,19.527C4.481,20.451 5.051,21.341 6.509,21.341L6.758,21.341L6.758,23.119L0,23.119L0,21.341Z" style="fill:rgb(247,233,209);fill-rule:nonzero;"/>
                </g>
                <g transform="matrix(1,0,0,1,436.609,614.485)">
                    <path d="M0,1.28C0.498,1.458 1.459,1.707 2.313,1.707C5.869,1.707 7.647,-0.747 7.647,-4.02C7.647,-5.905 7.186,-7.327 6.331,-8.288C5.3,-9.461 3.913,-10.102 1.459,-10.102L0,-10.102L0,1.28ZM-6.758,11.31L-6.402,11.31C-5.015,11.31 -4.588,11.133 -4.268,10.812C-3.947,10.492 -3.734,10.03 -3.734,8.82L-3.734,-7.541C-3.734,-8.75 -3.947,-9.213 -4.268,-9.533C-4.588,-9.853 -5.015,-10.031 -6.402,-10.031L-6.758,-10.031L-6.758,-11.809L3.023,-11.809C6.438,-11.809 8.146,-11.133 9.391,-10.031C10.777,-8.822 11.738,-6.794 11.738,-4.411C11.738,0 8.999,3.663 2.952,3.663C1.921,3.663 0.996,3.521 0,3.201L0,8.82C0,10.03 0.249,10.457 0.569,10.777C0.89,11.096 1.281,11.31 2.846,11.31L3.558,11.31L3.558,13.089L-6.758,13.089L-6.758,11.31Z" style="fill:rgb(247,233,209);fill-rule:nonzero;"/>
                </g>
                <g transform="matrix(1,0,0,1,465.949,612.491)">
                    <path d="M0,5.266C0,-0.461 -1.423,-8.392 -5.584,-8.392C-9.248,-8.392 -9.959,-4.196 -9.959,0.001C-9.959,5.728 -8.536,13.66 -4.375,13.66C-0.712,13.66 0,9.462 0,5.266M-14.761,2.811C-14.761,-4.445 -11.204,-10.172 -4.979,-10.172C1.245,-10.172 4.802,-4.445 4.802,2.455C4.802,9.711 1.245,15.438 -4.979,15.438C-11.204,15.438 -14.761,9.711 -14.761,2.811" style="fill:rgb(247,233,209);fill-rule:nonzero;"/>
                </g>
                <g transform="matrix(1,0,0,1,481.488,615.481)">
                    <path d="M0,-0.712C1.813,-0.712 2.774,-1.067 3.557,-1.637C4.802,-2.562 5.513,-3.948 5.513,-5.869C5.513,-7.719 4.802,-9.213 3.557,-10.173C2.81,-10.742 1.813,-11.098 0,-11.098L-1.743,-11.098L-1.743,-0.712L0,-0.712ZM-7.896,10.314L-7.719,10.314C-6.687,10.314 -6.261,10.137 -5.94,9.816C-5.62,9.496 -5.406,9.034 -5.406,7.824L-5.406,-8.537C-5.406,-9.746 -5.62,-10.209 -5.94,-10.528C-6.261,-10.849 -6.687,-11.026 -7.719,-11.026L-7.896,-11.026L-7.896,-12.805L2.24,-12.805C4.837,-12.805 6.473,-12.094 7.683,-10.92C8.928,-9.711 9.532,-8.074 9.532,-6.402C9.532,-3.166 7.185,-0.569 3.663,0.07C5.192,0.355 6.224,1.031 6.899,2.134C7.896,3.769 8.43,7.326 9.176,8.856C9.461,9.425 9.71,9.781 10.065,9.994C10.421,10.208 10.884,10.314 11.488,10.314L11.666,10.314L11.666,12.093L7.789,12.093C6.188,12.093 5.441,11.133 4.979,9.318C4.588,7.824 4.375,5.619 4.019,4.232C3.592,2.489 2.774,0.995 0.533,0.995L-1.743,0.995L-1.743,7.824C-1.743,9.034 -1.529,9.496 -1.21,9.816C-0.89,10.137 -0.463,10.314 0.746,10.314L1.103,10.314L1.103,12.093L-7.896,12.093L-7.896,10.314Z" style="fill:rgb(247,233,209);fill-rule:nonzero;"/>
                </g>
                <g transform="matrix(1,0,0,1,507.164,611.213)">
                    <path d="M0,7.647L-3.13,-2.17L-6.189,7.647L0,7.647ZM-12.414,14.583C-10.884,14.476 -9.781,13.302 -8.964,10.599L-2.988,-8.714L-1.565,-8.714L4.943,10.883C5.868,13.693 6.509,14.44 8.216,14.583L8.216,16.361L-0.854,16.361L-0.854,14.583C0.676,14.583 1.423,13.978 1.423,12.698C1.423,12.128 1.103,11.132 0.817,10.243L0.568,9.425L-6.723,9.425L-7.007,10.314C-7.292,11.204 -7.434,11.915 -7.434,12.413C-7.434,13.088 -7.256,13.551 -6.937,13.907C-6.58,14.334 -6.047,14.583 -5.265,14.583L-5.016,14.583L-5.016,16.361L-12.414,16.361L-12.414,14.583Z" style="fill:rgb(247,233,209);fill-rule:nonzero;"/>
                </g>
                <g transform="matrix(1,0,0,1,525.584,615.481)">
                    <path d="M0,-0.712C1.813,-0.712 2.774,-1.067 3.557,-1.637C4.802,-2.562 5.513,-3.948 5.513,-5.869C5.513,-7.719 4.802,-9.213 3.557,-10.173C2.81,-10.742 1.813,-11.098 0,-11.098L-1.743,-11.098L-1.743,-0.712L0,-0.712ZM-7.896,10.314L-7.719,10.314C-6.687,10.314 -6.261,10.137 -5.94,9.816C-5.62,9.496 -5.406,9.034 -5.406,7.824L-5.406,-8.537C-5.406,-9.746 -5.62,-10.209 -5.94,-10.528C-6.261,-10.849 -6.687,-11.026 -7.719,-11.026L-7.896,-11.026L-7.896,-12.805L2.24,-12.805C4.837,-12.805 6.473,-12.094 7.683,-10.92C8.928,-9.711 9.532,-8.074 9.532,-6.402C9.532,-3.166 7.185,-0.569 3.663,0.07C5.192,0.355 6.224,1.031 6.899,2.134C7.896,3.769 8.43,7.326 9.176,8.856C9.461,9.425 9.71,9.781 10.065,9.994C10.421,10.208 10.884,10.314 11.488,10.314L11.666,10.314L11.666,12.093L7.789,12.093C6.188,12.093 5.441,11.133 4.979,9.318C4.588,7.824 4.375,5.619 4.019,4.232C3.592,2.489 2.774,0.995 0.533,0.995L-1.743,0.995L-1.743,7.824C-1.743,9.034 -1.529,9.496 -1.21,9.816C-0.89,10.137 -0.463,10.314 0.746,10.314L1.103,10.314L1.103,12.093L-7.896,12.093L-7.896,10.314Z" style="fill:rgb(247,233,209);fill-rule:nonzero;"/>
                </g>
                <g transform="matrix(1,0,0,1,544.181,604.454)">
                    <path d="M0,21.341L0.533,21.341C1.92,21.341 2.348,21.163 2.667,20.843C2.987,20.523 3.201,20.061 3.201,18.851L3.201,14.761L-2.313,2.738C-3.166,0.854 -3.984,0 -5.336,0L-5.336,-1.778L3.912,-1.778L3.912,0L3.521,0C2.561,0 1.707,0.533 1.707,1.636C1.707,2.134 1.885,2.703 2.276,3.557L6.082,12.022L9.604,3.841C9.888,3.201 10.137,2.383 10.137,1.814C10.137,0.605 9.212,0 8.109,0L8.003,0L8.003,-1.778L15.116,-1.778L15.116,0C14.014,0.071 12.946,0.782 11.95,3.13L6.936,14.761L6.936,18.851C6.936,20.061 7.149,20.523 7.469,20.843C7.789,21.163 8.216,21.341 9.604,21.341L10.137,21.341L10.137,23.119L0,23.119L0,21.341Z" style="fill:rgb(247,233,209);fill-rule:nonzero;"/>
                </g>
                <g transform="matrix(1,0,0,1,675.621,611.213)">
                    <path d="M0,7.647L-3.13,-2.17L-6.189,7.647L0,7.647ZM-12.414,14.583C-10.884,14.476 -9.781,13.302 -8.964,10.599L-2.988,-8.714L-1.565,-8.714L4.943,10.883C5.868,13.693 6.509,14.44 8.216,14.583L8.216,16.361L-0.854,16.361L-0.854,14.583C0.676,14.583 1.423,13.978 1.423,12.698C1.423,12.128 1.103,11.132 0.817,10.243L0.568,9.425L-6.723,9.425L-7.007,10.314C-7.292,11.204 -7.434,11.915 -7.434,12.413C-7.434,13.088 -7.256,13.551 -6.937,13.907C-6.58,14.334 -6.047,14.583 -5.265,14.583L-5.016,14.583L-5.016,16.361L-12.414,16.361L-12.414,14.583Z" style="fill:rgb(247,233,209);fill-rule:nonzero;"/>
                </g>
                <g transform="matrix(1,0,0,1,694.041,615.481)">
                    <path d="M0,-0.712C1.813,-0.712 2.774,-1.067 3.557,-1.637C4.802,-2.562 5.513,-3.948 5.513,-5.869C5.513,-7.719 4.802,-9.213 3.557,-10.173C2.81,-10.742 1.813,-11.098 0,-11.098L-1.743,-11.098L-1.743,-0.712L0,-0.712ZM-7.896,10.314L-7.719,10.314C-6.687,10.314 -6.261,10.137 -5.94,9.816C-5.62,9.496 -5.406,9.034 -5.406,7.824L-5.406,-8.537C-5.406,-9.746 -5.62,-10.209 -5.94,-10.528C-6.261,-10.849 -6.687,-11.026 -7.719,-11.026L-7.896,-11.026L-7.896,-12.805L2.24,-12.805C4.837,-12.805 6.473,-12.094 7.683,-10.92C8.928,-9.711 9.532,-8.074 9.532,-6.402C9.532,-3.166 7.185,-0.569 3.663,0.07C5.192,0.355 6.224,1.031 6.899,2.134C7.896,3.769 8.43,7.326 9.176,8.856C9.461,9.425 9.71,9.781 10.065,9.994C10.421,10.208 10.884,10.314 11.488,10.314L11.666,10.314L11.666,12.093L7.789,12.093C6.188,12.093 5.441,11.133 4.979,9.318C4.588,7.824 4.375,5.619 4.019,4.232C3.592,2.489 2.774,0.995 0.533,0.995L-1.743,0.995L-1.743,7.824C-1.743,9.034 -1.529,9.496 -1.21,9.816C-0.89,10.137 -0.463,10.314 0.746,10.314L1.103,10.314L1.103,12.093L-7.896,12.093L-7.896,10.314Z" style="fill:rgb(247,233,209);fill-rule:nonzero;"/>
                </g>
                <g transform="matrix(1,0,0,1,712.531,604.454)">
                    <path d="M0,21.341L0.534,21.341C1.921,21.341 2.348,21.163 2.668,20.843C2.988,20.523 3.201,20.061 3.201,18.851L3.201,-0.178L2.988,-0.178C1.281,-0.178 -0.178,0.427 -1.173,1.458C-2.169,2.454 -2.738,3.877 -2.738,6.225L-2.738,7.113L-4.445,7.113L-4.445,-1.778L14.583,-1.778L14.583,7.113L12.876,7.113L12.876,6.225C12.876,3.877 12.307,2.454 11.312,1.458C10.315,0.427 8.857,-0.178 7.149,-0.178L6.937,-0.178L6.937,18.851C6.937,20.061 7.149,20.523 7.47,20.843C7.79,21.163 8.217,21.341 9.604,21.341L10.138,21.341L10.138,23.119L0,23.119L0,21.341Z" style="fill:rgb(247,233,209);fill-rule:nonzero;"/>
                </g>
            </g>
        </g>
    </g>
</svg>
