<?xml version="1.0" encoding="UTF-8" standalone="no"?>
<!DOCTYPE svg PUBLIC "-//W3C//DTD SVG 1.1//EN" "http://www.w3.org/Graphics/SVG/1.1/DTD/svg11.dtd">
<svg width="100%" height="100%" viewBox="0 0 283 283" version="1.1" xmlns="http://www.w3.org/2000/svg" xmlns:xlink="http://www.w3.org/1999/xlink" xml:space="preserve" xmlns:serif="http://www.serif.com/" style="fill-rule:evenodd;clip-rule:evenodd;stroke-miterlimit:10;">
    <g>
        <circle cx="141.732" cy="141.732" r="124.099" style="fill:none;stroke:rgb(247,233,209);stroke-width:4.8px;"/>
        <g transform="matrix(0.986,-0.1666,0.1666,0.986,-21.7609,25.5971)">
            <ellipse cx="141.732" cy="142.539" rx="96.803" ry="98.909" style="fill:none;"/>
        </g>
        <g transform="matrix(-0.624,-0.6486,0.7206,-0.6933,78.5335,217.457)">
            <text x="0px" y="0px" style="font-family:'Arial-BoldMT', 'Arial', sans-serif;font-weight:700;font-size:23.687px;fill:rgb(247,233,209);">G</text>
        </g>
        <g transform="matrix(-0.5498,-0.7126,0.7918,-0.6108,67.5316,205.636)">
            <text x="0px" y="0px" style="font-family:'Arial-BoldMT', 'Arial', sans-serif;font-weight:700;font-size:23.687px;fill:rgb(247,233,209);">I</text>
        </g>
        <g transform="matrix(-0.4736,-0.7653,0.8504,-0.5262,63.9481,201.425)">
            <text x="0px" y="0px" style="font-family:'Arial-BoldMT', 'Arial', sans-serif;font-weight:700;font-size:23.687px;fill:rgb(247,233,209);">H</text>
        </g>
        <g transform="matrix(-0.3551,-0.827,0.9189,-0.3946,56.1061,188.831)">
            <text x="0px" y="0px" style="font-family:'Arial-BoldMT', 'Arial', sans-serif;font-weight:700;font-size:23.687px;fill:rgb(247,233,209);">A</text>
        </g>
        <g transform="matrix(-0.2299,-0.8701,0.9668,-0.2554,50.2114,175.197)">
            <text x="0px" y="0px" style="font-family:'Arial-BoldMT', 'Arial', sans-serif;font-weight:700;font-size:23.687px;fill:rgb(247,233,209);">N</text>
        </g>
        <g transform="matrix(-0.0971,-0.8947,0.9942,-0.1079,46.3416,160.883)">
            <text x="0px" y="0px" style="font-family:'Arial-BoldMT', 'Arial', sans-serif;font-weight:700;font-size:23.687px;fill:rgb(247,233,209);">G</text>
        </g>
        <g transform="matrix(0.0397,-0.8991,0.999,0.0441,44.6131,144.987)">
            <text x="0px" y="0px" style="font-family:'Arial-BoldMT', 'Arial', sans-serif;font-weight:700;font-size:23.687px;fill:rgb(247,233,209);">A</text>
        </g>
        <g transform="matrix(0.1823,-0.8813,0.9793,0.2026,46.3223,124.388)">
            <text x="0px" y="0px" style="font-family:'Arial-BoldMT', 'Arial', sans-serif;font-weight:700;font-size:23.687px;fill:rgb(247,233,209);">I</text>
        </g>
        <g transform="matrix(0.2721,-0.8579,0.9532,0.3023,47.1857,118.911)">
            <text x="0px" y="0px" style="font-family:'Arial-BoldMT', 'Arial', sans-serif;font-weight:700;font-size:23.687px;fill:rgb(247,233,209);">N</text>
        </g>
        <g transform="matrix(0.3918,-0.8103,0.9003,0.4353,51.6743,104.764)">
            <text x="0px" y="0px" style="font-family:'Arial-BoldMT', 'Arial', sans-serif;font-weight:700;font-size:23.687px;fill:rgb(247,233,209);">S</text>
        </g>
        <g transform="matrix(0.4953,-0.7515,0.835,0.5503,57.6494,92.4194)">
            <text x="0px" y="0px" style="font-family:'Arial-BoldMT', 'Arial', sans-serif;font-weight:700;font-size:23.687px;fill:rgb(247,233,209);">T</text>
        </g>
        <g transform="matrix(0.5626,-0.7025,0.7806,0.6251,64.7293,81.9425)">
            <text x="0px" y="0px" style="font-family:'Arial-BoldMT', 'Arial', sans-serif;font-weight:700;font-size:23.687px;fill:rgb(247,233,209);">I</text>
        </g>
        <g transform="matrix(0.6254,-0.6472,0.7191,0.6949,68.0583,77.4938)">
            <text x="0px" y="0px" style="font-family:'Arial-BoldMT', 'Arial', sans-serif;font-weight:700;font-size:23.687px;fill:rgb(247,233,209);">T</text>
        </g>
        <g transform="matrix(0.7104,-0.5525,0.6139,0.7894,76.6552,68.4196)">
            <text x="0px" y="0px" style="font-family:'Arial-BoldMT', 'Arial', sans-serif;font-weight:700;font-size:23.687px;fill:rgb(247,233,209);">U</text>
        </g>
        <g transform="matrix(0.782,-0.4455,0.495,0.8689,88.3933,59.3455)">
            <text x="0px" y="0px" style="font-family:'Arial-BoldMT', 'Arial', sans-serif;font-weight:700;font-size:23.687px;fill:rgb(247,233,209);">T</text>
        </g>
        <g transform="matrix(0.836,-0.3334,0.3704,0.9289,99.2272,53.0834)">
            <text x="0px" y="0px" style="font-family:'Arial-BoldMT', 'Arial', sans-serif;font-weight:700;font-size:23.687px;fill:rgb(247,233,209);">E</text>
        </g>
        <g transform="matrix(0.8898,-0.1352,0.1502,0.9887,117.332,46.2111)">
            <text x="0px" y="0px" style="font-family:'Arial-BoldMT', 'Arial', sans-serif;font-weight:700;font-size:23.687px;fill:rgb(247,233,209);">O</text>
        </g>
        <g transform="matrix(0.8999,-0.0145,0.0161,0.9999,133.132,43.7889)">
            <text x="0px" y="0px" style="font-family:'Arial-BoldMT', 'Arial', sans-serif;font-weight:700;font-size:23.687px;fill:rgb(247,233,209);">F</text>
        </g>
        <g transform="matrix(0.8841,0.1683,-0.187,0.9824,151.279,43.9007)">
            <text x="0px" y="0px" style="font-family:'Arial-BoldMT', 'Arial', sans-serif;font-weight:700;font-size:23.687px;fill:rgb(247,233,209);">C</text>
        </g>
        <g transform="matrix(0.8458,0.3077,-0.3419,0.9397,165.818,46.5719)">
            <text x="0px" y="0px" style="font-family:'Arial-BoldMT', 'Arial', sans-serif;font-weight:700;font-size:23.687px;fill:rgb(247,233,209);">O</text>
        </g>
        <g transform="matrix(0.7865,0.4375,-0.4862,0.8739,180.848,52.0445)">
            <text x="0px" y="0px" style="font-family:'Arial-BoldMT', 'Arial', sans-serif;font-weight:700;font-size:23.687px;fill:rgb(247,233,209);">N</text>
        </g>
        <g transform="matrix(0.7183,0.5423,-0.6026,0.7981,193.796,59.3007)">
            <text x="0px" y="0px" style="font-family:'Arial-BoldMT', 'Arial', sans-serif;font-weight:700;font-size:23.687px;fill:rgb(247,233,209);">T</text>
        </g>
        <g transform="matrix(0.6404,0.6324,-0.7026,0.7116,203.832,66.7884)">
            <text x="0px" y="0px" style="font-family:'Arial-BoldMT', 'Arial', sans-serif;font-weight:700;font-size:23.687px;fill:rgb(247,233,209);">E</text>
        </g>
        <g transform="matrix(0.5352,0.7236,-0.804,0.5947,213.674,76.252)">
            <text x="0px" y="0px" style="font-family:'Arial-BoldMT', 'Arial', sans-serif;font-weight:700;font-size:23.687px;fill:rgb(247,233,209);">M</text>
        </g>
        <g transform="matrix(0.4175,0.7973,-0.8859,0.4639,223.807,90.1035)">
            <text x="0px" y="0px" style="font-family:'Arial-BoldMT', 'Arial', sans-serif;font-weight:700;font-size:23.687px;fill:rgb(247,233,209);">P</text>
        </g>
        <g transform="matrix(0.2953,0.8502,-0.9447,0.3281,230.261,102.155)">
            <text x="0px" y="0px" style="font-family:'Arial-BoldMT', 'Arial', sans-serif;font-weight:700;font-size:23.687px;fill:rgb(247,233,209);">O</text>
        </g>
        <g transform="matrix(0.164,0.8849,-0.9833,0.1822,235.499,117.255)">
            <text x="0px" y="0px" style="font-family:'Arial-BoldMT', 'Arial', sans-serif;font-weight:700;font-size:23.687px;fill:rgb(247,233,209);">R</text>
        </g>
        <g transform="matrix(0.034,0.8994,-0.9993,0.0378,238.248,131.859)">
            <text x="0px" y="0px" style="font-family:'Arial-BoldMT', 'Arial', sans-serif;font-weight:700;font-size:23.687px;fill:rgb(247,233,209);">A</text>
        </g>
        <g transform="matrix(-0.0987,0.8946,-0.994,-0.1097,238.851,146.68)">
            <text x="0px" y="0px" style="font-family:'Arial-BoldMT', 'Arial', sans-serif;font-weight:700;font-size:23.687px;fill:rgb(247,233,209);">R</text>
        </g>
        <g transform="matrix(-0.2251,0.8714,-0.9682,-0.2501,237.222,161.437)">
            <text x="0px" y="0px" style="font-family:'Arial-BoldMT', 'Arial', sans-serif;font-weight:700;font-size:23.687px;fill:rgb(247,233,209);">Y</text>
        </g>
        <g transform="matrix(-0.3942,0.8091,-0.899,-0.438,231.939,180.059)">
            <text x="0px" y="0px" style="font-family:'Arial-BoldMT', 'Arial', sans-serif;font-weight:700;font-size:23.687px;fill:rgb(247,233,209);">A</text>
        </g>
        <g transform="matrix(-0.5104,0.7413,-0.8236,-0.5671,225.481,193.413)">
            <text x="0px" y="0px" style="font-family:'Arial-BoldMT', 'Arial', sans-serif;font-weight:700;font-size:23.687px;fill:rgb(247,233,209);">R</text>
        </g>
        <g transform="matrix(-0.6084,0.6632,-0.7369,-0.676,217.017,205.628)">
            <text x="0px" y="0px" style="font-family:'Arial-BoldMT', 'Arial', sans-serif;font-weight:700;font-size:23.687px;fill:rgb(247,233,209);">T</text>
        </g>
        <g>
            <g>
                <path d="M123.296,125.11C122.847,124.35 122.02,124.124 121.35,123.696C118.961,122.17 116.536,120.706 114.12,119.227C110.767,117.174 107.419,115.113 104.053,113.082C101.898,111.782 99.726,110.512 97.543,109.263C93.489,106.944 89.419,104.654 85.361,102.343C83.422,101.239 81.494,100.115 79.564,98.994C79.425,98.913 79.311,98.786 79.124,98.628C79.629,98.371 79.982,98.601 80.303,98.752C83.532,100.272 86.767,101.779 89.97,103.356C92.981,104.838 95.974,106.36 98.94,107.936C101.906,109.512 104.832,111.169 107.768,112.805C108.943,113.459 110.122,114.111 111.256,114.836C112.807,115.827 114.293,116.927 115.849,117.908C118.006,119.268 120.201,120.563 122.384,121.878C122.531,121.966 122.715,121.989 122.881,122.042C123.093,122.187 123.304,122.332 123.516,122.477C123.586,122.55 123.657,122.623 123.727,122.696C123.748,122.711 123.769,122.725 123.79,122.74C123.766,122.729 123.742,122.717 123.718,122.706C123.648,122.633 123.577,122.56 123.507,122.487C123.296,122.341 123.086,122.196 122.875,122.05C122.178,121.51 121.502,120.936 120.78,120.435C118.477,118.838 116.156,117.268 113.841,115.687C112.2,114.566 110.552,113.454 108.918,112.322C107.196,111.13 105.49,109.913 103.771,108.717C102.198,107.622 100.616,106.541 99.039,105.452C97.636,104.483 96.235,103.509 94.831,102.542C94.158,102.078 93.478,101.626 92.805,101.163C92.468,100.931 92.141,100.685 91.809,100.445C91.84,100.381 91.871,100.316 91.903,100.252C92.089,100.275 92.305,100.244 92.458,100.331C94.058,101.243 95.661,102.15 97.236,103.106C98.506,103.876 99.742,104.706 100.986,105.52C101.637,105.946 102.268,106.405 102.919,106.832C104.876,108.117 106.868,109.348 108.79,110.687C110.448,111.843 112.03,113.115 113.643,114.34C114.764,115.192 115.88,116.05 116.998,116.905C117.047,116.845 117.096,116.785 117.146,116.724C116.773,116.388 116.402,116.048 116.026,115.715C114.693,114.533 113.396,113.304 112.017,112.182C109.975,110.522 107.874,108.939 105.798,107.323C102.657,104.878 99.537,102.403 96.37,99.995C93.255,97.628 90.09,95.332 86.952,92.997C86.068,92.339 85.197,91.662 84.333,90.976C84.134,90.818 83.986,90.591 83.7,90.266C84.302,90.214 84.631,90.389 84.956,90.599C86.804,91.793 88.698,92.918 90.494,94.19C94.813,97.249 99.087,100.376 103.378,103.476C106.517,105.744 109.686,107.97 112.782,110.299C114.51,111.599 116.127,113.06 117.774,114.473C119.287,115.771 120.772,117.105 122.276,118.414C122.374,118.5 122.535,118.508 122.667,118.552C122.818,118.72 122.97,118.889 123.121,119.057C123.171,118.997 123.22,118.936 123.27,118.876C123.07,118.767 122.87,118.658 122.67,118.548C121.862,117.692 121.079,116.808 120.239,115.987C118.835,114.616 117.408,113.268 115.964,111.941C114.495,110.591 112.991,109.282 111.51,107.946C110.69,107.206 109.886,106.447 109.076,105.695C105.835,102.688 102.591,99.685 99.358,96.67C98.87,96.215 98.431,95.704 97.958,95.206C98.297,94.808 98.517,95.033 98.722,95.21C99.853,96.188 100.974,97.178 102.106,98.154C104.315,100.06 106.539,101.948 108.735,103.87C109.672,104.69 110.539,105.596 111.466,106.428C112.71,107.544 113.994,108.613 115.241,109.726C116.621,110.958 117.972,112.224 119.349,113.459C119.578,113.664 119.872,113.791 120.137,113.954C120.208,114.027 120.279,114.101 120.35,114.174C120.374,114.192 120.399,114.211 120.423,114.229C120.396,114.214 120.368,114.198 120.341,114.183C120.27,114.11 120.199,114.036 120.128,113.963C119.445,113.233 118.789,112.475 118.074,111.78C116.59,110.337 115.013,108.992 113.587,107.492C111.1,104.875 108.713,102.157 106.256,99.509C104.04,97.121 101.693,94.878 99.284,92.697C97.488,91.071 95.798,89.318 94.07,87.612C92.621,86.181 91.183,84.738 89.747,83.294C89.509,83.054 89.304,82.78 89.146,82.437C89.812,82.403 90.24,82.84 90.682,83.203C91.919,84.219 93.145,85.249 94.354,86.3C95.375,87.187 96.373,88.102 97.368,89.02C100.066,91.51 102.798,93.962 105.439,96.515C108.211,99.194 110.889,101.977 113.616,104.705C114.774,105.864 115.979,106.974 117.116,108.155C118.057,109.131 118.933,110.174 119.831,111.195C120.941,112.456 122.038,113.728 123.152,114.984C123.387,115.249 123.674,115.465 123.938,115.704C124.005,115.754 124.071,115.804 123.966,115.725C124.091,115.763 124.01,115.739 123.93,115.714C123.586,115.177 123.28,114.606 122.89,114.108C121.586,112.444 120.264,110.794 118.924,109.16C117.879,107.886 116.794,106.647 115.732,105.388C114.393,103.8 113.063,102.204 111.721,100.619C110.563,99.252 109.403,97.887 108.228,96.537C106.206,94.214 104.165,91.908 102.144,89.584C101.736,89.115 101.381,88.598 101.001,88.103C101.05,88.045 101.1,87.986 101.149,87.928C101.365,88.064 101.619,88.162 101.792,88.343C104.393,91.057 106.996,93.769 109.571,96.51C110.771,97.787 111.939,99.099 113.068,100.443C114.818,102.525 116.523,104.647 118.244,106.755C118.87,107.522 119.487,108.298 120.108,109.069C120.166,109.024 120.224,108.979 120.282,108.933C119.899,108.354 119.523,107.771 119.133,107.197C117.843,105.295 116.559,103.389 115.252,101.499C113.699,99.253 112.112,97.031 110.56,94.785C107.494,90.347 104.073,86.202 100.73,81.991C99.304,80.194 97.922,78.359 96.519,76.542C96.306,76.267 96.076,76.002 96.083,75.585C96.57,75.432 96.799,75.75 97.025,75.996C98.305,77.395 99.582,78.799 100.84,80.22C101.551,81.023 102.243,81.847 102.914,82.686C106.005,86.549 109.114,90.398 112.16,94.3C113.814,96.419 115.333,98.649 116.949,100.8C118.522,102.893 120.184,104.916 121.725,107.034C122.779,108.482 123.692,110.04 124.671,111.546C125.532,112.87 126.392,114.195 127.267,115.509C127.38,115.679 127.582,115.787 127.743,115.923C127.768,115.941 127.793,115.958 127.818,115.976C127.79,115.961 127.763,115.946 127.735,115.931C127.105,114.804 126.478,113.676 125.845,112.552C125.544,112.018 125.183,111.515 124.934,110.957C123.78,108.366 122.167,106.072 120.638,103.721C119.071,101.312 117.483,98.915 115.974,96.468C114.104,93.437 112.302,90.36 110.48,87.298C110.306,87.006 110.191,86.677 110.048,86.365C110.113,86.314 110.178,86.264 110.243,86.213C110.417,86.391 110.624,86.545 110.76,86.749C111.814,88.334 112.863,89.924 113.899,91.523C115.971,94.72 118.035,97.923 120.099,101.126C120.814,102.236 121.516,103.355 122.224,104.47C122.297,104.427 122.37,104.383 122.443,104.34C121.935,103.37 121.453,102.385 120.916,101.433C119.356,98.674 117.765,95.933 116.204,93.175C113.896,89.099 111.575,85.031 109.312,80.928C107.678,77.964 106.131,74.949 104.544,71.957C104.268,71.436 103.991,70.916 103.697,70.36C104.278,70.206 104.379,70.618 104.529,70.849C105.628,72.535 106.747,74.21 107.767,75.947C110.228,80.141 112.623,84.376 115.075,88.575C116.892,91.685 118.739,94.775 120.607,97.853C122.979,101.76 125.423,105.621 127.757,109.552C128.673,111.095 129.369,112.778 130.177,114.391C130.401,114.839 130.666,115.266 130.913,115.702C130.937,115.718 130.96,115.735 130.984,115.751C130.957,115.738 130.93,115.725 130.903,115.712C130.58,114.836 130.266,113.957 129.933,113.086C128.821,110.176 127.362,107.444 125.928,104.696C124.611,102.173 123.362,99.611 122.075,97.071C120.558,94.076 119.026,91.089 117.51,88.094C116.012,85.134 114.52,82.17 113.039,79.201C112.856,78.834 112.75,78.426 112.608,78.037C112.687,77.992 112.766,77.946 112.845,77.901C113.076,78.232 113.342,78.542 113.532,78.896C114.64,80.96 115.74,83.029 116.825,85.106C119.013,89.295 121.196,93.487 123.368,97.685C124.23,99.352 125.051,101.042 125.909,102.711C126.052,102.989 126.286,103.216 126.478,103.467C126.499,103.551 126.52,103.634 126.488,103.506C126.56,103.616 126.514,103.546 126.468,103.476C125.956,102.202 125.446,100.928 124.933,99.655C123.029,94.925 120.899,90.292 119.248,85.451C118.665,83.741 117.872,82.108 117.208,80.426C116.597,78.879 116.038,77.31 115.443,75.755C114.434,73.12 113.415,70.489 112.401,67.856C112.115,67.113 111.819,66.373 111.563,65.619C111.493,65.414 111.552,65.162 111.552,64.669C111.872,65.072 112.091,65.253 112.193,65.489C113.856,69.335 115.513,73.184 117.152,77.041C117.873,78.738 118.536,80.46 119.248,82.161C120.295,84.663 121.34,87.165 122.425,89.65C123.682,92.528 125,95.377 126.255,98.255C127.351,100.769 128.418,103.296 129.456,105.836C130.235,107.744 130.942,109.683 131.697,111.602C131.813,111.896 132.017,112.152 132.18,112.426C132.317,112.948 132.454,113.469 132.591,113.991C132.657,113.968 132.722,113.946 132.788,113.923C132.646,113.402 132.607,112.841 132.175,112.43C131.781,111.114 131.403,109.792 130.988,108.483C130.332,106.412 129.671,104.342 128.974,102.285C128.369,100.502 127.692,98.746 127.08,96.965C126.351,94.844 125.672,92.704 124.948,90.581C123.359,85.921 121.748,81.269 120.17,76.605C119.974,76.026 119.609,75.454 119.826,74.549C120.343,75.333 120.639,76.021 120.898,76.715C122.237,80.311 123.583,83.905 124.876,87.519C126.802,92.903 128.686,98.303 130.588,103.696C130.766,104.202 130.947,104.706 131.127,105.211C131.145,105.358 131.164,105.506 131.182,105.653C131.224,105.638 131.266,105.623 131.308,105.609C131.244,105.48 131.18,105.35 131.117,105.221C130.939,104.335 130.816,103.433 130.573,102.566C129.291,97.994 127.9,93.453 126.697,88.859C125.182,83.076 123.786,77.26 122.392,71.444C121.725,68.661 121.179,65.847 120.591,63.043C120.528,62.74 120.557,62.417 120.542,62.065C121.104,62.08 121.079,62.516 121.159,62.765C121.82,64.835 122.474,66.908 123.074,68.997C123.884,71.818 124.65,74.653 125.425,77.485C126.62,81.853 127.797,86.227 128.998,90.593C130.065,94.471 131.146,98.344 132.238,102.214C133.153,105.455 134.094,108.689 135.127,111.928C135.083,111.622 135.06,111.312 134.992,111.012C134.322,108.042 133.627,105.079 132.976,102.105C132.527,100.054 132.157,97.985 131.714,95.932C131.08,92.992 130.388,90.065 129.765,87.123C128.706,82.124 127.673,77.119 126.645,72.113C126.171,69.805 125.729,67.491 125.283,65.177C125.226,64.884 125.232,64.578 125.194,64.096C125.754,64.453 125.775,64.867 125.859,65.232C126.271,67.033 126.657,68.841 127.08,70.639C127.901,74.131 128.747,77.617 129.572,81.108C130.797,86.291 132.051,91.466 133.22,96.662C134.413,101.963 135.517,107.286 136.664,112.598C136.73,112.904 136.833,113.202 137.011,113.483C135.678,104.572 134.267,95.672 133.034,86.746C131.807,77.864 130.166,69.037 129.454,60.118C129.889,59.892 130.01,60.106 130.065,60.379C130.359,61.836 130.656,63.293 130.93,64.755C131.264,66.534 131.59,68.316 131.895,70.1C132.292,72.42 132.67,74.744 133.048,77.068C133.512,79.928 133.979,82.787 134.424,85.651C134.824,88.228 135.189,90.811 135.584,93.389C135.951,95.789 136.336,98.186 136.717,100.583C137.183,103.518 137.649,106.452 138.124,109.385C138.417,111.192 138.728,112.996 139.157,114.791C139.119,114.292 139.084,113.792 139.041,113.293C139.013,112.968 138.964,112.645 138.938,112.32C138.802,110.621 138.67,108.922 138.539,107.223C138.464,106.246 138.385,105.27 138.326,104.292C138.235,102.77 138.177,101.246 138.073,99.725C137.972,98.242 137.83,96.763 137.709,95.282C137.688,95.028 137.685,94.773 137.67,94.519C137.534,92.309 137.397,90.1 137.263,87.89C137.248,87.636 137.258,87.38 137.242,87.126C137.11,85.063 136.973,83 136.842,80.937C136.766,79.742 136.687,78.547 136.627,77.351C136.542,75.646 136.487,73.939 136.393,72.235C136.274,70.097 136.119,67.961 135.999,65.822C135.963,65.177 135.993,64.529 135.993,63.661C136.225,63.948 136.386,64.056 136.405,64.186C136.567,65.297 136.705,66.412 136.846,67.527C136.909,68.03 136.971,68.534 137.018,69.039C137.173,70.737 137.312,72.436 137.475,74.132C137.662,76.08 137.879,78.025 138.064,79.973C138.17,81.092 138.231,82.216 138.321,83.338C138.441,84.819 138.57,86.3 138.694,87.781C138.773,88.72 138.86,89.659 138.925,90.599C139.015,91.902 139.072,93.208 139.172,94.51C139.267,95.738 139.41,96.962 139.515,98.189C139.62,99.418 139.699,100.649 139.801,101.877C139.993,104.189 140.198,106.5 140.387,108.813C140.484,110.007 140.557,111.202 140.644,112.397C140.662,112.646 140.697,112.893 140.871,113.166C140.912,112.997 140.994,112.826 140.987,112.659C140.96,112.044 140.864,111.43 140.864,110.816C140.857,100.147 140.841,89.479 140.871,78.81C140.884,74.372 140.99,69.935 141.074,65.497C141.106,63.826 141.187,62.155 141.265,60.485C141.279,60.187 141.392,59.893 141.459,59.598C141.529,59.596 141.6,59.594 141.67,59.592C141.752,59.759 141.848,59.92 141.91,60.094C141.944,60.191 141.922,60.31 141.924,60.419C141.992,65.511 141.996,70.605 142.141,75.695C142.505,88.469 142.24,101.246 142.342,114.02C142.343,114.199 142.342,114.378 142.514,114.59C142.581,114.235 142.684,113.882 142.708,113.523C142.745,112.979 142.706,112.43 142.737,111.885C142.865,109.603 142.998,107.321 143.145,105.04C143.282,102.904 143.424,100.768 143.59,98.634C143.768,96.357 143.983,94.083 144.168,91.806C144.265,90.612 144.318,89.415 144.416,88.221C144.522,86.92 144.659,85.622 144.779,84.323C144.866,83.384 144.957,82.444 145.032,81.504C145.189,79.515 145.32,77.523 145.493,75.536C145.756,72.501 146.043,69.468 146.327,66.435C146.384,65.822 146.45,65.207 146.553,64.601C146.603,64.309 146.747,64.035 146.959,63.771C147.316,64.39 147.176,65.025 147.135,65.646C147.109,66.043 147.034,66.438 147.008,66.835C146.862,69.081 146.724,71.327 146.586,73.573C146.573,73.791 146.58,74.01 146.567,74.228C146.435,76.473 146.296,78.718 146.17,80.964C146.083,82.522 146.029,84.083 145.932,85.64C145.819,87.45 145.674,89.258 145.546,91.066C145.465,92.224 145.379,93.382 145.316,94.541C145.229,96.172 145.178,97.806 145.081,99.436C144.969,101.318 144.825,103.198 144.694,105.079C144.684,105.224 144.672,105.369 144.666,105.515C144.589,107.329 144.527,109.145 144.431,110.958C144.364,112.221 144.25,113.482 144.158,114.743C144.23,114.752 144.301,114.761 144.373,114.77C144.598,113.352 144.846,111.938 145.043,110.516C145.371,108.146 145.651,105.769 145.978,103.399C146.29,101.138 146.627,98.88 146.97,96.623C147.34,94.187 147.723,91.753 148.115,89.321C148.559,86.567 149.022,83.816 149.472,81.062C149.922,78.309 150.337,75.549 150.823,72.802C151.403,69.52 152.034,66.247 152.659,62.973C152.808,62.191 153.01,61.419 153.21,60.648C153.266,60.43 153.398,60.232 153.548,59.914C153.904,60.471 153.793,60.953 153.732,61.385C153.422,63.608 153.058,65.824 152.742,68.046C152.497,69.766 152.317,71.497 152.067,73.217C151.686,75.832 151.265,78.44 150.869,81.052C150.489,83.559 150.115,86.066 149.746,88.575C149.266,91.835 148.785,95.095 148.322,98.358C147.997,100.652 147.711,102.952 147.393,105.247C147.165,106.897 146.91,108.542 146.676,110.191C146.488,111.517 146.313,112.845 146.133,114.173C146.086,114.243 146.04,114.312 146.112,114.204C146.08,114.332 146.101,114.248 146.122,114.164C146.393,113.122 146.701,112.088 146.927,111.036C147.619,107.814 148.251,104.579 148.959,101.361C149.97,96.762 151.007,92.168 152.07,87.582C152.864,84.159 153.736,80.756 154.538,77.335C155.406,73.631 156.23,69.916 157.083,66.208C157.184,65.77 157.349,65.348 157.542,64.736C157.877,65.309 157.797,65.699 157.724,66.066C156.853,70.472 156.011,74.885 155.083,79.278C153.93,84.734 152.689,90.17 151.515,95.621C150.539,100.152 149.606,104.692 148.65,109.227C148.269,111.035 147.878,112.841 147.498,114.649C147.447,114.893 147.434,115.146 147.536,115.436C147.622,115.176 147.722,114.921 147.791,114.657C149.095,109.644 150.365,104.622 151.703,99.619C153.351,93.457 155.032,87.305 156.739,81.16C158.3,75.54 159.913,69.935 161.51,64.326C161.639,63.874 161.8,63.429 161.992,63.002C162.061,62.848 162.266,62.76 162.602,62.482C161.149,70.611 159.082,78.331 157.164,86.081C155.253,93.801 153.061,101.446 150.992,109.124C151.065,109.147 151.138,109.17 151.211,109.194C151.927,106.894 152.634,104.591 153.363,102.296C154.109,99.948 154.862,97.603 155.638,95.265C156.402,92.963 157.173,90.662 157.986,88.378C158.812,86.058 159.694,83.76 160.548,81.451C161.38,79.201 162.233,76.959 163.151,74.527C163.595,75.111 163.452,75.44 163.34,75.768C162.944,76.933 162.549,78.099 162.154,79.265C160.597,83.857 159.034,88.448 157.485,93.043C156.179,96.919 154.881,100.798 153.597,104.682C152.79,107.124 152.01,109.575 151.229,112.026C151.12,112.368 151.07,112.73 150.993,113.083C150.93,113.213 150.866,113.342 150.803,113.472C150.847,113.487 150.89,113.502 150.934,113.516C150.95,113.369 150.967,113.221 150.983,113.074C151.387,112.156 151.837,111.255 152.187,110.316C154.021,105.4 156.033,100.564 158.149,95.771C160.06,91.442 161.899,87.079 163.72,82.708C164.943,79.773 166.073,76.797 167.257,73.844C167.62,72.939 168.008,72.043 168.414,71.157C169.241,69.35 170.084,67.55 170.928,65.751C171.086,65.414 171.195,64.988 171.839,65.074C171.681,65.599 171.571,66.082 171.394,66.538C168.98,72.736 166.591,78.945 164.125,85.122C162.062,90.291 159.894,95.415 157.802,100.572C157.303,101.803 156.924,103.087 156.49,104.346C156.474,104.369 156.458,104.392 156.442,104.415C156.455,104.389 156.467,104.362 156.48,104.336C157.001,103.314 157.532,102.296 158.042,101.267C158.891,99.554 159.7,97.819 160.574,96.12C161.581,94.163 162.629,92.228 163.679,90.295C165.348,87.221 167.026,84.153 168.713,81.089C169.182,80.237 169.687,79.405 170.194,78.576C170.33,78.353 170.534,78.175 170.859,77.801C170.831,78.571 170.623,79.003 170.388,79.446C168.259,83.457 166.135,87.471 164.026,91.494C162.067,95.231 160.086,98.957 158.196,102.731C157.148,104.824 156.25,106.997 155.315,109.149C154.438,111.169 153.603,113.209 152.827,115.325C152.932,115.189 153.066,115.068 153.138,114.915C153.543,114.069 153.924,113.212 154.329,112.366C156.481,107.865 159.032,103.605 161.63,99.37C163.625,96.117 165.582,92.838 167.518,89.547C170.661,84.206 173.758,78.837 176.912,73.504C177.495,72.518 178.25,71.64 178.94,70.724C179.056,70.57 179.241,70.471 179.421,70.324C179.644,70.803 179.359,71.091 179.196,71.386C178.481,72.68 177.734,73.955 177.022,75.251C175.754,77.557 174.513,79.88 173.24,82.184C171.567,85.211 169.878,88.229 168.186,91.244C166.792,93.727 165.466,96.255 163.958,98.663C162.331,101.262 160.942,103.992 159.494,106.691C159.224,107.195 159.039,107.748 158.815,108.278C158.745,108.425 158.675,108.572 158.604,108.719C158.533,108.864 158.463,109.008 158.392,109.153C158.377,109.173 158.362,109.194 158.346,109.214C158.358,109.191 158.371,109.167 158.383,109.144C158.453,108.999 158.523,108.855 158.593,108.71C158.663,108.563 158.733,108.416 158.803,108.269C159.316,107.499 159.844,106.738 160.339,105.956C162.378,102.737 164.412,99.515 166.437,96.287C167.948,93.878 169.435,91.453 170.949,89.045C171.499,88.17 172.095,87.326 172.881,86.511C172.896,86.724 172.987,86.973 172.911,87.143C172.692,87.636 172.422,88.107 172.146,88.57C170.222,91.785 168.335,95.024 166.349,98.198C164.958,100.422 163.417,102.546 161.967,104.732C160.893,106.351 159.828,107.977 158.813,109.635C157.518,111.751 156.273,113.9 155.019,116.042C154.841,116.346 154.73,116.693 154.588,117.02C154.571,117.043 154.555,117.065 154.538,117.088C154.552,117.062 154.565,117.036 154.579,117.01C155.15,116.189 155.736,115.379 156.29,114.546C157.205,113.169 158.065,111.752 159.011,110.399C160.018,108.959 161.093,107.569 162.148,106.166C162.838,105.249 163.553,104.353 164.243,103.436C165.3,102.032 166.329,100.606 167.4,99.214C169.587,96.371 171.781,93.533 173.998,90.714C176.215,87.895 178.438,85.079 180.707,82.305C182.34,80.309 184.045,78.376 185.737,76.434C186.081,76.039 186.513,75.725 186.944,75.338C187.253,75.785 186.989,76.06 186.83,76.282C185.701,77.859 184.567,79.432 183.398,80.977C182.055,82.75 180.682,84.498 179.306,86.245C178.441,87.344 177.521,88.397 176.675,89.511C175.526,91.026 174.43,92.584 173.302,94.117C170.217,98.308 167.129,102.498 164.037,106.683C163.27,107.721 162.476,108.736 161.707,109.772C161.494,110.058 161.327,110.38 161.139,110.686C161.123,110.71 161.108,110.734 161.092,110.758C161.105,110.731 161.117,110.704 161.13,110.676C161.557,110.262 162.013,109.875 162.406,109.429C163.423,108.276 164.402,107.087 165.415,105.93C167.419,103.64 169.421,101.347 171.454,99.084C172.532,97.885 173.691,96.764 174.781,95.577C176.91,93.258 179.014,90.913 181.139,88.589C181.387,88.318 181.576,87.9 182.164,88.006C182.067,88.244 182.026,88.489 181.891,88.654C180.531,90.318 179.18,91.992 177.78,93.62C175.421,96.362 173.032,99.077 170.648,101.796C169.68,102.9 168.677,103.971 167.713,105.079C164.566,108.695 161.416,112.309 158.302,115.955C157.754,116.597 157.373,117.39 156.915,118.114C156.774,118.333 156.633,118.551 156.493,118.77C156.477,118.793 156.462,118.815 156.446,118.838C156.458,118.812 156.471,118.786 156.483,118.76C156.623,118.541 156.764,118.323 156.904,118.104C157.665,117.255 158.425,116.406 159.187,115.558C160.381,114.229 161.563,112.888 162.775,111.577C163.99,110.263 165.216,108.959 166.472,107.687C168.81,105.319 171.158,102.962 173.529,100.629C175.465,98.725 177.426,96.848 179.4,94.986C182.309,92.243 185.218,89.499 188.169,86.805C189.669,85.436 191.259,84.17 192.817,82.869C193.083,82.647 193.395,82.484 193.861,82.179C193.77,82.522 193.775,82.714 193.684,82.811C192.438,84.141 191.179,85.458 189.923,86.777C189.8,86.906 189.666,87.025 189.539,87.152C186.831,89.857 184.115,92.552 181.419,95.27C177.767,98.952 174.135,102.655 170.487,106.341C168.929,107.915 167.329,109.443 165.794,111.04C164.832,112.041 163.956,113.131 163.042,114.181C162.971,114.254 162.899,114.328 162.828,114.401C162.814,114.423 162.799,114.444 162.785,114.466C162.796,114.441 162.808,114.417 162.819,114.392C162.89,114.318 162.961,114.245 163.032,114.171C163.243,114.055 163.487,113.976 163.66,113.816C164.603,112.945 165.517,112.039 166.464,111.173C168.698,109.129 170.928,107.08 173.191,105.07C175.454,103.059 177.753,101.092 180.039,99.108C181.437,97.895 182.836,96.681 184.246,95.482C184.524,95.246 184.857,95.079 185.165,94.88C185.228,94.944 185.291,95.009 185.354,95.073C185.217,95.289 185.117,95.546 184.939,95.716C182.817,97.731 180.701,99.752 178.548,101.731C177.027,103.13 175.454,104.468 173.901,105.83C172.723,106.863 171.538,107.888 170.362,108.924C168.76,110.336 167.149,111.738 165.569,113.176C164.543,114.11 163.564,115.099 162.567,116.068C161.569,117.038 160.566,118.003 159.585,118.992C158.957,119.625 158.366,120.297 157.758,120.952C157.743,120.972 157.729,120.992 157.714,121.012C157.726,120.989 157.738,120.966 157.749,120.943C158.242,120.608 158.777,120.323 159.222,119.93C161.441,117.974 163.591,115.932 165.853,114.032C168.279,111.995 170.767,110.033 173.292,108.128C176.33,105.836 179.427,103.628 182.512,101.404C185.567,99.201 188.621,96.997 191.708,94.844C193.717,93.443 195.783,92.128 197.829,90.783C198.237,90.515 198.684,90.337 199.37,90.317C199.13,90.626 199.037,90.814 198.89,90.926C196.966,92.389 195.028,93.833 193.106,95.297C191.606,96.439 190.118,97.598 188.632,98.759C186.279,100.599 183.944,102.465 181.579,104.288C178.368,106.762 175.119,109.183 171.92,111.672C170.097,113.09 168.337,114.594 166.558,116.071C166.407,116.196 166.325,116.409 166.211,116.582C166.194,116.605 166.176,116.628 166.159,116.651C166.173,116.625 166.187,116.598 166.201,116.572C167.131,115.934 168.064,115.3 168.991,114.656C170.533,113.586 172.063,112.495 173.613,111.438C176.279,109.621 178.932,107.784 181.636,106.03C184.252,104.333 186.922,102.728 189.575,101.092C189.867,100.912 190.195,100.794 190.591,100.608C190.662,101.134 190.335,101.244 190.1,101.41C187.456,103.265 184.817,105.128 182.164,106.969C179.686,108.688 177.195,110.388 174.706,112.089C171.166,114.509 167.622,116.923 164.078,119.338C162.73,120.256 161.375,121.163 160.035,122.093C159.809,122.249 159.642,122.495 159.447,122.699C159.376,122.773 159.305,122.846 159.234,122.92C159.152,122.944 159.069,122.968 159.199,122.93C159.091,123.014 159.157,122.962 159.224,122.91C159.295,122.837 159.366,122.763 159.437,122.69C160.086,122.341 160.756,122.028 161.38,121.638C165.078,119.326 168.744,116.958 172.466,114.688C174.796,113.267 177.18,111.933 179.586,110.653C184.999,107.775 190.426,104.925 195.877,102.125C198.173,100.946 200.54,99.914 202.882,98.834C203.209,98.683 203.582,98.64 203.934,98.547C203.967,98.63 204,98.712 204.033,98.795C203.545,99.114 203.069,99.457 202.566,99.749C198.615,102.042 194.671,104.349 190.701,106.605C186.856,108.789 182.967,110.892 179.123,113.08C176.691,114.464 174.295,115.916 171.906,117.379C168.822,119.267 165.755,121.186 162.695,123.116C162.074,123.508 161.513,124.003 160.925,124.45C160.714,124.596 160.503,124.741 160.291,124.887C160.21,124.912 160.128,124.937 160.254,124.898C160.15,124.98 160.216,124.928 160.282,124.876C160.493,124.73 160.704,124.585 160.915,124.439C161.352,124.215 161.8,124.014 162.223,123.765C165.52,121.819 168.769,119.78 172.119,117.938C174.752,116.49 177.484,115.228 180.214,113.978C183.781,112.345 187.382,110.791 190.982,109.236C192.214,108.704 193.484,108.265 194.741,107.798C194.91,107.735 195.108,107.754 195.407,107.723C195.169,108.255 194.782,108.367 194.446,108.524C192.429,109.468 190.402,110.389 188.389,111.342C185.578,112.672 182.772,114.012 179.973,115.368C175.516,117.528 171.065,119.702 166.617,121.882C166.111,122.13 165.642,122.458 165.189,122.861C165.378,122.809 165.574,122.778 165.754,122.703C169.663,121.058 173.552,119.361 177.483,117.773C180.626,116.504 183.812,115.348 186.99,114.174C189.704,113.171 192.424,112.184 195.159,111.246C198.228,110.194 201.314,109.195 204.4,108.196C205.102,107.969 205.829,107.82 206.55,107.663C206.727,107.624 206.927,107.693 207.36,107.737C206.949,108.022 206.749,108.212 206.513,108.315C204.992,108.978 203.479,109.664 201.935,110.265C197.558,111.97 193.153,113.596 188.789,115.334C185.773,116.535 182.809,117.875 179.82,119.148C175.336,121.058 170.849,122.961 166.367,124.876C165.722,125.151 165.096,125.474 164.461,125.774C164.488,125.844 164.514,125.914 164.541,125.983C167.203,125.021 169.855,124.028 172.53,123.107C175.196,122.189 177.878,121.315 180.568,120.474C183.292,119.622 186.021,118.777 188.775,118.035C191.446,117.316 194.123,116.58 196.861,116.2C196.885,116.31 196.908,116.42 196.932,116.53C184.442,120.436 171.952,124.341 159.236,128.318C160.385,128.383 161.224,128.015 162.076,127.779C165.672,126.785 169.239,125.667 172.855,124.761C178.967,123.231 185.099,121.787 191.24,120.386C194.873,119.557 198.53,118.831 202.192,118.156C204.505,117.73 206.848,117.482 209.178,117.159C209.305,117.141 209.438,117.169 209.586,117.255C209.087,117.665 208.49,117.796 207.9,117.935C204.237,118.797 200.567,119.625 196.913,120.522C193.224,121.428 189.546,122.383 185.872,123.35C182.365,124.273 178.865,125.228 175.367,126.189C172.14,127.076 168.919,127.987 165.697,128.892C165.504,128.946 165.321,129.035 165.182,129.284C166.133,129.072 167.082,128.853 168.034,128.651C170.82,128.06 173.595,127.408 176.397,126.911C178.745,126.495 181.127,126.283 183.489,125.944C185.574,125.644 187.651,125.286 189.733,124.968C190.531,124.846 191.334,124.757 192.136,124.664C193.914,124.458 195.692,124.251 197.473,124.064C198.053,124.003 198.649,123.877 199.323,124.229C198.983,124.573 198.614,124.607 198.263,124.666C196.186,125.012 194.108,125.359 192.029,125.695C189.152,126.161 186.273,126.614 183.396,127.079C179.482,127.712 175.565,128.329 171.656,128.995C167.884,129.638 164.12,130.335 160.353,131.011C160.266,131.027 160.184,131.072 160.108,131.155C161.517,131.194 162.887,130.9 164.268,130.688C166.176,130.395 168.091,130.145 170.003,129.882C171.359,129.696 172.715,129.511 174.073,129.342C175.013,129.225 175.956,129.131 176.898,129.033C179.55,128.756 182.202,128.48 184.854,128.208C185.134,128.179 185.417,128.187 185.697,128.164C187.341,128.03 188.984,127.89 190.627,127.757C191.712,127.669 192.798,127.596 193.883,127.505C196.331,127.3 198.779,127.088 201.227,126.879C201.297,126.873 201.367,126.867 201.438,126.865C204.285,126.777 207.133,126.687 209.98,126.606C210.284,126.597 210.59,126.646 210.98,126.674C210.768,127.245 210.363,127.243 210.004,127.286C207.601,127.575 205.198,127.867 202.793,128.131C201.747,128.246 200.693,128.278 199.645,128.379C197.62,128.574 195.598,128.795 193.574,129C191.968,129.163 190.36,129.304 188.755,129.479C187.395,129.628 186.039,129.812 184.681,129.98C183.707,130.101 182.731,130.211 181.758,130.345C180.645,130.498 179.536,130.683 178.423,130.836C176.895,131.047 175.364,131.238 173.834,131.442C171.887,131.702 169.941,131.969 167.994,132.23C166.673,132.407 165.349,132.568 164.029,132.754C163.62,132.812 163.219,132.928 162.831,133.135C163.209,133.135 163.59,133.166 163.965,133.13C165.99,132.933 168.015,132.729 170.037,132.508C173.363,132.145 176.699,132.09 180.04,132.05C181.896,132.028 183.75,131.805 185.605,131.688C186.167,131.653 186.732,131.668 187.295,131.668C190.113,131.667 192.93,131.647 195.747,131.678C196.975,131.692 198.202,131.808 199.428,131.887C199.519,131.893 199.606,131.974 199.835,132.092C199.556,132.2 199.393,132.314 199.225,132.321C197.505,132.399 195.784,132.468 194.063,132.522C191.286,132.609 188.508,132.659 185.732,132.769C182.749,132.887 179.761,132.974 176.787,133.225C172.787,133.562 168.784,133.648 164.775,133.659C164.196,133.661 163.618,133.802 163.051,134.074C164.771,134.074 166.491,134.052 168.21,134.079C171.727,134.135 175.244,134.205 178.761,134.293C180.475,134.336 182.189,134.427 183.902,134.5C185.587,134.572 187.271,134.652 188.956,134.721C190.887,134.8 192.819,134.867 194.75,134.943C196.57,135.015 198.391,135.073 200.21,135.171C202.523,135.295 204.837,135.433 207.147,135.604C208.195,135.682 209.238,135.847 210.281,135.987C210.43,136.007 210.569,136.107 210.955,136.276C210.49,136.386 210.275,136.474 210.059,136.481C209.426,136.502 208.791,136.473 208.157,136.494C206.894,136.536 205.631,136.643 204.368,136.639C203.071,136.635 201.774,136.483 200.477,136.48C194.103,136.467 187.723,136.328 181.355,136.533C175.44,136.723 169.526,136.768 163.619,136.629C148.48,136.271 133.341,136.549 118.202,136.493C115.284,136.482 112.361,136.74 109.449,136.633C100.016,136.284 90.582,136.516 81.148,136.478C78.794,136.469 76.44,136.599 74.086,136.658C73.462,136.674 72.842,136.639 72.125,136.235C72.431,136.11 72.599,136.004 72.778,135.974C73.574,135.84 74.37,135.684 75.172,135.616C76.572,135.498 77.977,135.439 79.38,135.354C81.553,135.221 83.726,135.086 85.899,134.955C86.11,134.942 86.321,134.941 86.533,134.942C90.261,134.954 93.982,134.799 97.701,134.522C98.998,134.425 100.308,134.525 101.609,134.47C104.135,134.364 106.658,134.153 109.185,134.1C111.291,134.055 113.4,134.207 115.508,134.206C116.62,134.205 117.732,134.063 118.864,133.889C118.568,133.81 118.274,133.717 117.974,133.658C117.804,133.625 117.623,133.648 117.447,133.644C113.825,133.559 110.203,133.5 106.583,133.375C105.219,133.328 103.859,133.13 102.498,133.001C102.428,132.994 102.358,132.984 102.288,132.98C100.744,132.905 99.201,132.806 97.656,132.76C94.422,132.662 91.186,132.608 87.952,132.503C86.416,132.453 84.882,132.328 83.319,132.074C83.676,132.007 84.031,131.907 84.391,131.878C88.643,131.534 92.903,131.637 97.159,131.689C99.192,131.714 101.221,131.96 103.254,132.046C104.766,132.11 106.284,132.035 107.796,132.103C109.372,132.174 110.943,132.35 112.517,132.465C114.12,132.583 115.725,132.684 117.348,132.59C116.126,132.424 114.905,132.255 113.683,132.093C111.874,131.853 110.065,131.62 108.256,131.38C106.796,131.186 105.336,130.99 103.877,130.785C102.591,130.605 101.308,130.401 100.022,130.229C98.04,129.965 96.055,129.718 94.071,129.465C92.714,129.292 91.357,129.118 89.999,128.954C88.92,128.824 87.839,128.706 86.758,128.587C86.061,128.51 85.362,128.444 84.665,128.369C82.782,128.167 80.9,127.95 79.016,127.765C77.864,127.652 76.704,127.615 75.552,127.494C74.446,127.378 73.347,127.197 72.051,127.017C72.295,126.731 72.386,126.523 72.494,126.513C73.087,126.459 73.685,126.419 74.279,126.439C75.296,126.473 76.311,126.572 77.327,126.615C79.504,126.707 81.687,126.715 83.859,126.88C86.587,127.087 89.306,127.43 92.031,127.688C93.255,127.804 94.486,127.828 95.71,127.944C97.387,128.103 99.059,128.314 100.734,128.493C102.444,128.676 104.155,128.838 105.864,129.028C107.886,129.253 109.91,129.466 111.925,129.742C114.22,130.056 116.506,130.436 118.796,130.784C119.375,130.872 119.957,130.946 120.583,130.83C120.401,130.75 120.226,130.633 120.036,130.596C118.45,130.288 116.863,129.984 115.272,129.698C113.128,129.313 110.983,128.939 108.837,128.572C106.692,128.206 104.545,127.858 102.4,127.494C100.461,127.165 98.525,126.819 96.586,126.493C93.815,126.027 91.043,125.571 88.271,125.113C86.92,124.89 85.568,124.68 84.219,124.449C84.039,124.418 83.874,124.296 83.702,124.217C83.714,124.14 83.726,124.063 83.737,123.986C84.07,123.986 84.405,123.96 84.736,123.99C86.344,124.138 87.954,124.279 89.558,124.464C91.161,124.649 92.762,124.862 94.359,125.101C97.033,125.502 99.702,125.936 102.373,126.35C104.384,126.662 106.402,126.934 108.407,127.282C109.963,127.552 111.505,127.912 113.054,128.228C114.672,128.559 116.291,128.888 117.911,129.208C118.075,129.241 118.251,129.212 118.444,129.076C117.338,128.777 116.233,128.472 115.125,128.179C112.608,127.514 110.086,126.866 107.571,126.189C104.58,125.385 101.593,124.564 98.608,123.738C96.333,123.109 94.076,122.402 91.786,121.834C87.517,120.775 83.23,119.797 78.953,118.772C77.515,118.428 76.085,118.05 74.654,117.676C74.334,117.592 74.027,117.457 73.741,117.141C73.959,117.106 74.185,117.013 74.394,117.044C76.893,117.423 79.399,117.765 81.884,118.226C85.34,118.867 88.789,119.556 92.223,120.312C94.627,120.842 96.998,121.531 99.389,122.127C101.95,122.765 104.518,123.375 107.083,123.999C108.347,124.306 109.609,124.625 110.875,124.921C113.373,125.506 115.875,126.076 118.373,126.661C118.811,126.764 119.239,126.91 119.701,126.938C118.463,126.258 117.077,126.032 115.759,125.608C114.351,125.155 112.911,124.811 111.49,124.404C110.101,124.007 108.712,123.613 107.334,123.179C105.923,122.735 104.529,122.231 103.121,121.778C101.746,121.336 100.361,120.93 98.983,120.498C97.604,120.066 96.228,119.625 94.852,119.182C93.441,118.728 92.03,118.275 90.623,117.809C89.275,117.363 87.932,116.9 86.437,116.394C86.961,116.018 87.336,116.112 87.695,116.209C91.368,117.202 95.05,118.16 98.707,119.212C101.785,120.097 104.839,121.07 107.891,122.046C110.335,122.827 112.759,123.675 115.195,124.48C115.49,124.578 115.81,124.595 116.119,124.65C116.344,124.919 116.607,125.075 116.984,124.851C116.693,124.788 116.402,124.724 116.111,124.661C114.998,124.141 113.895,123.595 112.77,123.106C110.669,122.192 108.553,121.312 106.445,120.414C102.807,118.866 99.187,117.269 95.527,115.778C91.735,114.233 87.901,112.799 84.092,111.296C81.435,110.248 78.79,109.169 76.143,108.095C75.936,108.011 75.756,107.858 75.402,107.636C76.075,107.442 76.536,107.573 76.976,107.709C80.713,108.861 84.464,109.972 88.176,111.203C91.823,112.413 95.441,113.72 99.053,115.042C100.805,115.683 102.507,116.47 104.243,117.16C106.536,118.072 108.851,118.927 111.137,119.857C112.837,120.549 114.503,121.327 116.19,122.053C116.577,122.219 116.987,122.329 117.386,122.464C117.454,122.516 117.522,122.569 117.413,122.485C117.545,122.522 117.461,122.498 117.378,122.475C117.072,122.246 116.79,121.963 116.455,121.797C113.349,120.26 110.23,118.754 107.124,117.217C105.161,116.246 103.226,115.213 101.26,114.25C98.055,112.68 94.837,111.138 91.618,109.599C90.501,109.065 89.362,108.58 88.24,108.058C88.032,107.961 87.854,107.797 87.719,107.485C87.93,107.508 88.157,107.485 88.348,107.56C90.451,108.386 92.568,109.178 94.643,110.074C97.757,111.419 100.858,112.802 103.931,114.244C105.756,115.1 107.531,116.077 109.306,117.043C111.142,118.043 112.966,119.069 114.768,120.131C117.241,121.589 119.687,123.099 122.153,124.571C122.513,124.786 122.92,124.917 123.306,125.086C123.447,125.158 123.589,125.231 123.73,125.303C123.753,125.32 123.776,125.338 123.799,125.355C123.773,125.341 123.747,125.327 123.72,125.313C123.578,125.255 123.437,125.183 123.296,125.11ZM135.353,113.083C135.369,113.23 135.385,113.377 135.401,113.524C135.445,113.512 135.488,113.5 135.532,113.487C135.469,113.355 135.406,113.224 135.342,113.092C135.324,112.942 135.307,112.793 135.289,112.643C135.245,112.658 135.201,112.674 135.157,112.689C135.223,112.82 135.288,112.952 135.353,113.083ZM150.834,110.442C150.87,110.441 150.906,110.44 150.942,110.439C150.933,110.244 150.924,110.05 150.915,109.855C150.888,109.856 150.861,109.857 150.835,109.859C150.834,110.053 150.834,110.248 150.834,110.442Z" style="fill:rgb(247,233,209);fill-rule:nonzero;"/>
                <path d="M111.876,170.747L111.876,172.186C111.632,172.238 111.404,172.304 111.172,172.333C108.807,172.624 107.727,173.829 107.696,176.286C107.671,178.252 107.69,180.218 107.689,182.184L107.689,187.501C107.386,187.722 107.088,187.963 106.768,188.169C104.041,189.926 101.051,190.978 97.902,191.483C95.402,191.884 92.882,191.927 90.347,191.591C87.666,191.236 85.126,190.512 82.715,189.245C79.232,187.416 76.508,184.77 74.488,181.323C73.006,178.795 72.047,176.046 71.783,173.138C71.574,170.838 71.584,168.497 71.887,166.172C72.21,163.691 72.874,161.342 74.063,159.163C76.84,154.073 80.908,150.52 86.221,148.584C89.44,147.411 92.8,147.174 96.209,147.497C97.641,147.632 99.065,147.732 100.487,147.998C102.509,148.376 104.426,149.034 106.416,149.926C106.754,153.047 107.095,156.207 107.446,159.448C106.864,159.483 106.43,159.509 105.906,159.541C105.774,159.109 105.648,158.702 105.526,158.294C104.168,153.743 101.14,150.99 96.743,149.924C94.879,149.472 92.932,149.496 90.983,149.788C87.975,150.239 85.371,151.449 83.312,153.743C81.295,155.99 79.964,158.652 79.168,161.62C78.311,164.817 78.153,168.08 78.336,171.348C78.528,174.78 79.293,178.104 80.909,181.152C82.512,184.173 84.566,186.769 87.673,188.26C89.278,189.03 90.954,189.574 92.756,189.5C94.088,189.445 95.441,189.485 96.745,189.249C98.458,188.94 100.037,188.222 101.289,186.881C101.71,186.43 101.899,185.944 101.896,185.32C101.882,182.189 101.888,179.058 101.893,175.926C101.895,174.578 100.892,172.889 99.353,172.576C98.638,172.43 97.913,172.332 97.124,172.201L97.124,170.804C99.595,170.697 102.045,170.763 104.493,170.751C106.915,170.738 109.336,170.747 111.876,170.747Z" style="fill:rgb(247,233,209);fill-rule:nonzero;"/>
                <path d="M196.501,173.689L183.306,173.689C182.851,174.929 182.395,176.144 181.958,177.366C181.154,179.616 180.346,181.865 179.573,184.126C179.376,184.703 179.253,185.319 179.178,185.928C178.928,187.936 180.251,189.468 182.22,189.507C182.596,189.514 182.971,189.561 183.433,189.596C183.469,190.099 183.498,190.512 183.534,191.014C181.409,191.258 179.389,190.871 177.368,190.93C175.374,190.988 173.38,191.047 171.294,191.109C171.247,190.575 171.21,190.161 171.17,189.71C171.451,189.635 171.649,189.534 171.846,189.536C173.545,189.553 174.614,188.526 175.343,187.125C176.023,185.817 176.597,184.438 177.105,183.046C179.775,175.736 182.405,168.41 185.059,161.093C186.096,158.234 187.181,155.394 188.195,152.527C188.726,151.028 189.15,149.488 189.626,147.968C189.657,147.868 189.718,147.778 189.832,147.549C190.155,147.549 190.534,147.567 190.91,147.544C191.258,147.523 191.613,147.499 191.947,147.405C192.936,147.126 193.373,147.32 193.734,148.31C194.453,150.282 195.154,152.261 195.863,154.237C197.491,158.768 199.118,163.299 200.75,167.828C202.344,172.254 203.925,176.685 205.55,181.099C206.274,183.066 207.027,185.027 207.897,186.927C208.244,187.684 208.894,188.322 209.496,188.918C210.107,189.524 210.951,189.54 211.829,189.495L211.829,191.04C209.376,191.192 206.969,190.831 204.559,190.92C202.181,191.008 199.802,191.037 197.363,191.093L197.363,189.679C197.976,189.537 198.518,189.418 199.058,189.286C200.856,188.849 201.365,187.518 200.946,185.904C200.701,184.96 200.329,184.049 199.999,183.13C198.922,180.132 197.839,177.137 196.754,174.142C196.701,174.012 196.614,173.893 196.501,173.689ZM195.68,171.103C193.74,165.788 191.839,160.579 189.888,155.232C187.98,160.601 186.126,165.819 184.248,171.103L195.68,171.103Z" style="fill:rgb(247,233,209);fill-rule:nonzero;"/>
                <path d="M167.223,149.817C167.311,150.079 167.399,150.246 167.42,150.422C167.588,151.849 167.751,153.276 167.902,154.705C168.035,155.965 168.16,157.226 168.269,158.489C168.298,158.825 168.254,159.168 168.241,159.585C167.658,159.505 167.218,159.445 166.764,159.382C166.595,158.788 166.47,158.223 166.276,157.684C165.217,154.749 163.441,152.433 160.745,150.928C159.394,150.174 157.924,149.754 156.419,149.643C153.885,149.456 151.367,149.609 148.937,150.534C147.314,151.152 145.928,152.14 144.744,153.394C142.268,156.015 140.83,159.222 140.055,162.765C139.468,165.45 139.538,168.176 139.602,170.902C139.686,174.45 140.51,177.804 142.091,180.946C143.492,183.731 145.298,186.166 148.026,187.711C150.024,188.843 152.131,189.594 154.454,189.511C155.819,189.463 157.175,189.557 158.538,189.178C162.095,188.19 164.618,185.915 166.341,182.65C167.025,181.353 167.494,179.934 168.126,178.413C168.407,178.387 168.846,178.346 169.363,178.299C169.383,178.647 169.448,178.933 169.408,179.202C169.096,181.276 168.773,183.349 168.433,185.418C168.292,186.275 168.062,187.117 167.947,187.976C167.82,188.922 167.306,189.447 166.48,189.779C164.771,190.466 163.01,190.936 161.216,191.318C158.432,191.911 155.61,191.928 152.812,191.748C148.492,191.47 144.5,190.106 140.955,187.412C138.074,185.223 135.903,182.479 134.418,179.146C133.244,176.511 132.56,173.747 132.585,170.822C132.591,170.094 132.584,169.366 132.587,168.638C132.602,164.481 133.737,160.658 136.031,157.266C139.275,152.469 143.617,149.206 149.193,147.912C151.668,147.338 154.204,147.233 156.743,147.492C157.894,147.609 159.053,147.654 160.202,147.794C162.622,148.089 164.922,148.864 167.223,149.817Z" style="fill:rgb(247,233,209);fill-rule:nonzero;"/>
                <path d="M114.679,149.445L114.679,148.08C117.008,147.926 119.316,148.043 121.62,148.023C123.899,148.003 126.179,148.019 128.538,148.019L128.538,149.507C128.228,149.545 127.993,149.581 127.757,149.601C125.904,149.76 124.802,150.962 124.796,152.882C124.783,156.885 124.785,160.887 124.784,164.89C124.782,171.695 124.782,178.499 124.783,185.304C124.783,185.777 124.779,186.251 124.8,186.723C124.864,188.15 125.705,189.185 127.047,189.5C127.521,189.612 127.998,189.71 128.51,189.822L128.51,191.05L114.679,191.05C114.659,190.644 114.643,190.299 114.622,189.861C115.033,189.742 115.39,189.605 115.758,189.539C117.904,189.157 118.265,188.313 118.689,186.504C118.787,186.086 118.792,185.639 118.792,185.205C118.798,174.652 118.8,164.1 118.794,153.547C118.793,151.294 117.55,149.744 115.425,149.594C115.221,149.58 115.02,149.515 114.679,149.445Z" style="fill:rgb(247,233,209);fill-rule:nonzero;"/>
            </g>
        </g>
    </g>
</svg>
