<?xml version="1.0" encoding="UTF-8" standalone="no"?>
<!-- Generator: Adobe Illustrator 23.0.1, SVG Export Plug-In . SVG Version: 6.00 Build 0)  -->

<svg
   version="1.1"
   id="Layer_1"
   x="0px"
   y="0px"
   viewBox="0 0 1417.3 1417.3"
   style="enable-background:new 0 0 1417.3 1417.3;"
   xml:space="preserve"
   sodipodi:docname="GICA LOGO 2-01.svg"
   inkscape:version="1.4.2 (ebf0e940, 2025-05-08)"
   xmlns:inkscape="http://www.inkscape.org/namespaces/inkscape"
   xmlns:sodipodi="http://sodipodi.sourceforge.net/DTD/sodipodi-0.dtd"
   xmlns="http://www.w3.org/2000/svg"
   xmlns:svg="http://www.w3.org/2000/svg"><defs
   id="defs8" /><sodipodi:namedview
   id="namedview8"
   pagecolor="#ffffff"
   bordercolor="#999999"
   borderopacity="1"
   inkscape:showpageshadow="2"
   inkscape:pageopacity="0"
   inkscape:pagecheckerboard="0"
   inkscape:deskcolor="#d1d1d1"
   inkscape:zoom="0.52564734"
   inkscape:cx="707.69882"
   inkscape:cy="609.72438"
   inkscape:window-width="1512"
   inkscape:window-height="916"
   inkscape:window-x="0"
   inkscape:window-y="38"
   inkscape:window-maximized="1"
   inkscape:current-layer="g8" />
<style
   type="text/css"
   id="style1">
	.st0{fill:none;stroke:#2828C9;stroke-width:4.8036;stroke-miterlimit:10;}
	.st1{fill:none;}
	.st2{fill:#C1A355;}
	.st3{fill:#01203D;}
	.st4{font-family:'Cambria-Bold';}
	.st5{font-size:63.3913px;}
</style>
<g
   id="g8">
	<path
   class="st2"
   d="M558.8,655.6c-3.7-6.2-10.5-8.1-16-11.6c-19.6-12.5-39.6-24.6-59.4-36.7c-27.6-16.9-55.1-33.8-82.8-50.5   c-17.7-10.7-35.6-21.1-53.5-31.4c-33.3-19.1-66.8-37.9-100.2-56.9c-15.9-9.1-31.8-18.3-47.7-27.5c-1.1-0.7-2.1-1.7-3.6-3   c4.2-2.1,7.1-0.2,9.7,1c26.6,12.5,53.2,24.9,79.5,37.9c24.8,12.2,49.4,24.7,73.8,37.7s48.4,26.6,72.6,40   c9.7,5.4,19.4,10.7,28.7,16.7c12.8,8.1,25,17.2,37.8,25.3c17.7,11.2,35.8,21.8,53.7,32.6c1.2,0.7,2.7,0.9,4.1,1.3   c1.7,1.2,3.5,2.4,5.2,3.6c0.6,0.6,1.2,1.2,1.7,1.8c0.2,0.1,0.3,0.2,0.5,0.4c-0.2-0.1-0.4-0.2-0.6-0.3c-0.6-0.6-1.2-1.2-1.7-1.8   c-1.7-1.2-3.5-2.4-5.2-3.6c-5.7-4.4-11.3-9.2-17.2-13.3c-18.9-13.1-38-26-57.1-39c-13.5-9.2-27-18.4-40.5-27.7   c-14.2-9.8-28.2-19.8-42.3-29.6c-12.9-9-25.9-17.9-38.9-26.8c-11.5-8-23.1-16-34.6-23.9c-5.5-3.8-11.1-7.5-16.7-11.3   c-2.8-1.9-5.5-3.9-8.2-5.9c0.3-0.5,0.5-1.1,0.8-1.6c1.5,0.2,3.3-0.1,4.6,0.6c13.2,7.5,26.3,15,39.3,22.8   c10.4,6.3,20.6,13.2,30.8,19.8c5.4,3.5,10.5,7.3,15.9,10.8c16.1,10.6,32.5,20.7,48.3,31.7c13.6,9.5,26.6,20,39.9,30   c9.2,7,28.4,20.1,28.8,19.6c-3.1-2.8-6.1-5.6-9.2-8.3c-11-9.7-21.6-19.8-33-29.1c-16.8-13.6-34.1-26.7-51.1-40   c-25.8-20.1-51.5-40.5-77.5-60.3c-25.6-19.5-51.6-38.3-77.4-57.5c-7.3-5.4-14.4-11-21.5-16.6c-1.6-1.3-2.9-3.2-5.2-5.8   c4.9-0.4,7.7,1,10.3,2.7c15.2,9.8,30.8,19.1,45.5,29.5c35.5,25.2,70.7,50.9,105.9,76.4c25.8,18.6,51.9,37,77.3,56.1   c14.2,10.7,27.5,22.7,41,34.3c12.4,10.7,44.7,36.8,45,36.4c0.1-0.1,0.1-0.1,0.2-0.2c-1.6-0.9-18-17-24.9-23.8   c-11.5-11.3-23.3-22.4-35.2-33.3c-12.1-11.1-24.4-21.9-36.6-32.8c-6.7-6.1-13.4-12.3-20-18.5c-26.6-24.7-53.3-49.4-79.9-74.2   c-4-3.7-7.6-7.9-11.5-12c2.8-3.3,4.6-1.4,6.3,0c9.3,8,18.5,16.2,27.8,24.2c18.2,15.7,36.5,31.2,54.5,47c7.7,6.7,14.8,14.2,22.5,21   c10.2,9.2,20.8,18,31,27.1c11.3,10.1,22.5,20.5,33.8,30.7c1.9,1.7,4.3,2.7,6.5,4.1c0.6,0.6,1.2,1.2,1.8,1.8   c0.2,0.1,0.4,0.3,0.6,0.5c-0.2-0.1-0.5-0.3-0.7-0.4c-0.6-0.6-1.2-1.2-1.8-1.8c-5.6-6-11-12.2-16.9-17.9   c-12.2-11.9-25.2-22.9-36.9-35.3c-20.4-21.5-40.1-43.9-60.3-65.6c-18.2-19.6-37.5-38.1-57.3-56c-14.8-13.4-28.7-27.8-42.9-41.8   c-11.9-11.8-23.7-23.6-35.5-35.5c-2-2-3.6-4.2-4.9-7c5.5-0.3,9,3.3,12.6,6.3c10.2,8.4,20.3,16.8,30.2,25.5   c8.4,7.3,16.6,14.8,24.8,22.4c22.2,20.5,44.6,40.6,66.4,61.6c22.8,22,44.8,44.9,67.2,67.3c9.5,9.5,19.4,18.7,28.8,28.4   c7.7,8,14.9,16.6,22.3,25c9.1,10.4,18.1,20.8,27.3,31.2c1.9,2.2,4.3,4,6.5,5.9c0.6,0.4,1.1,0.8,0.2,0.2c1,0.3,0.4,0.1-0.3-0.1   c-2.8-4.4-5.3-9.1-8.6-13.2c-10.7-13.7-21.6-27.2-32.6-40.7c-8.6-10.5-17.5-20.7-26.2-31c-11-13.1-21.9-26.2-33-39.2   c-9.5-11.2-19.1-22.5-28.7-33.6c-16.6-19.1-33.4-38.1-50-57.2c-3.4-3.9-6.3-8.1-9.4-12.2c0.4-0.5,0.8-1,1.2-1.4   c1.8,1.1,3.9,1.9,5.3,3.4c21.4,22.3,42.8,44.6,64,67.2c9.9,10.5,19.5,21.3,28.8,32.3c14.4,17.1,28.4,34.6,42.6,51.9   c5.1,6.3,16.3,18.3,16.8,17.9c-3.1-4.8-6.2-9.6-9.4-14.3c-10.6-15.6-21.2-31.3-31.9-46.9c-12.8-18.5-25.8-36.7-38.6-55.2   c-25.2-36.5-53.3-70.6-80.8-105.2c-11.7-14.8-23.1-29.9-34.6-44.8c-1.8-2.3-3.6-4.4-3.6-7.9c4-1.3,5.9,1.4,7.7,3.4   c10.5,11.5,21,23,31.4,34.7c5.8,6.6,11.5,13.4,17.1,20.3c25.4,31.8,51,63.4,76,95.5c13.6,17.4,26.1,35.8,39.4,53.4   c12.9,17.2,26.6,33.8,39.3,51.3c8.7,11.9,16.2,24.7,24.2,37.1c7.1,10.9,14.2,21.8,21.3,32.6c0.9,1.4,2.6,2.3,3.9,3.4   c0.2,0.1,0.4,0.3,0.6,0.4c-0.2-0.1-0.5-0.2-0.7-0.4c-5.2-9.3-10.3-18.5-15.5-27.8c-2.5-4.4-5.4-8.5-7.5-13.1   c-9.5-21.3-22.8-40.2-35.3-59.5c-12.9-19.8-25.9-39.5-38.3-59.6c-15.4-24.9-30.2-50.2-45.2-75.4c-1.4-2.4-2.4-5.1-3.6-7.7   c0.5-0.4,1.1-0.8,1.6-1.2c1.4,1.5,3.1,2.7,4.3,4.4c8.7,13,17.3,26.1,25.8,39.3c17,26.3,34,52.6,51,79c5.9,9.1,18.7,26.8,19.3,26.4   c-4.2-8-8.1-16.1-12.6-23.9c-12.8-22.7-25.9-45.2-38.7-67.9c-19-33.5-38.1-67-56.7-100.7c-13.4-24.4-26.2-49.2-39.2-73.8   c-2.3-4.3-4.5-8.6-7-13.1c4.8-1.3,5.6,2.1,6.8,4c9,13.9,18.2,27.6,26.6,41.9c20.2,34.5,39.9,69.3,60.1,103.8   c14.9,25.6,30.1,51,45.5,76.3c19.5,32.1,39.6,63.9,58.8,96.2c7.5,12.7,13.3,26.5,19.9,39.8c1.8,3.7,4,7.2,6.1,10.8   c0.2,0.1,0.4,0.3,0.6,0.4c-0.2-0.1-0.4-0.2-0.7-0.3c-2.7-7.2-5.2-14.4-8-21.6c-9.1-23.9-21.1-46.4-32.9-69   c-10.8-20.7-21.1-41.8-31.7-62.7c-12.5-24.6-25.1-49.2-37.5-73.8c-12.3-24.3-24.6-48.7-36.8-73.1c-1.5-3-2.4-6.4-3.5-9.6   c0.6-0.4,1.3-0.7,1.9-1.1c1.9,2.7,4.1,5.3,5.6,8.2c9.1,17,18.2,34,27.1,51.1c18,34.4,35.9,68.9,53.8,103.4   c7.1,13.7,13.8,27.6,20.9,41.3c1.2,2.3,3.1,4.2,4.7,6.2c0.2,0.7,0.3,1.4,0.1,0.3c0.6,0.9,0.2,0.3-0.2-0.2   c-4.2-10.5-8.4-21-12.6-31.4c-15.7-38.9-33.2-77-46.7-116.8c-4.8-14.1-11.3-27.5-16.8-41.3c-5-12.7-9.6-25.6-14.5-38.4   c-8.3-21.7-16.7-43.3-25-64.9c-2.4-6.1-4.8-12.2-6.9-18.4c-0.6-1.7-0.1-3.8-0.1-7.8c2.6,3.3,4.4,4.8,5.3,6.7   c13.7,31.6,27.3,63.3,40.8,95c5.9,14,11.4,28.1,17.2,42.1c8.6,20.6,17.2,41.1,26.1,61.6c10.3,23.7,21.2,47.1,31.5,70.8   c9,20.7,17.8,41.4,26.3,62.3c6.4,15.7,12.2,31.6,18.4,47.4c1,2.4,8.4,19.3,9,19.1c-1.2-4.3-11.4-34-14.8-44.7   c-5.4-17-10.8-34-16.6-51c-5-14.7-10.5-29.1-15.6-43.7c-6-17.4-11.6-35-17.5-52.5c-13.1-38.3-26.3-76.6-39.3-114.9   c-1.6-4.8-4.6-9.5-2.8-16.9c4.3,6.4,6.7,12.1,8.8,17.8c11,29.6,22.1,59.1,32.7,88.8c15.8,44.3,31.3,88.7,47,133   c1.5,4.2,3,8.3,4.4,12.5c0.1,1.2,0.3,2.4,0.5,3.6c0.3-0.1,0.7-0.2,1-0.4c-0.5-1.1-1.1-2.1-1.6-3.2c-1.5-7.3-2.5-14.7-4.5-21.8   c-10.5-37.6-22-74.9-31.9-112.7c-12.5-47.6-23.9-95.4-35.4-143.2c-5.5-22.9-10-46-14.8-69.1c-0.5-2.5-0.3-5.1-0.4-8   c4.6,0.1,4.4,3.7,5.1,5.8c5.4,17,10.8,34.1,15.7,51.2c6.7,23.2,13,46.5,19.3,69.8c9.8,35.9,19.5,71.9,29.4,107.8   c8.8,31.9,17.7,63.7,26.6,95.6c7.5,26.6,15.3,53.2,23.8,79.9c-0.4-2.5-0.6-5.1-1.1-7.5c-5.5-24.4-11.2-48.8-16.6-73.2   c-3.7-16.9-6.7-33.9-10.4-50.8c-5.2-24.2-10.9-48.2-16-72.4c-8.7-41.1-17.2-82.3-25.7-123.4c-3.9-19-7.5-38-11.2-57   c-0.5-2.4-0.4-4.9-0.7-8.9c4.6,2.9,4.8,6.3,5.5,9.3c3.4,14.8,6.6,29.7,10,44.5c6.8,28.7,13.7,57.4,20.5,86.1   c10.1,42.6,20.4,85.2,30,127.9c9.8,43.6,18.9,87.4,28.3,131c0.5,2.5,1.4,5,2.9,7.3c-11-73.3-22.6-146.5-32.7-219.8   c-10.1-73-23.6-145.6-29.4-218.9c3.6-1.9,4.6-0.1,5,2.1c2.4,12,4.9,24,7.1,36c2.7,14.6,5.4,29.3,7.9,43.9   c3.3,19.1,6.4,38.2,9.5,57.3c3.8,23.5,7.7,47,11.3,70.6c3.3,21.2,6.3,42.4,9.5,63.6c3,19.7,6.2,39.4,9.3,59.2   c3.8,24.1,7.7,48.3,11.6,72.4c2.4,14.9,5,29.7,8.5,44.5c-0.3-4.1-0.6-8.2-1-12.3c-0.2-2.7-0.6-5.3-0.8-8c-1.1-14-2.2-27.9-3.3-41.9   c-0.6-8-1.3-16.1-1.8-24.1c-0.7-12.5-1.2-25-2.1-37.6c-0.8-12.2-2-24.4-3-36.5c-0.2-2.1-0.2-4.2-0.3-6.3   c-1.1-18.2-2.2-36.3-3.3-54.5c-0.1-2.1,0-4.2-0.2-6.3c-1.1-17-2.2-33.9-3.3-50.9c-0.6-9.8-1.3-19.7-1.8-29.5   c-0.7-14-1.2-28.1-1.9-42.1c-1-17.6-2.3-35.1-3.2-52.7c-0.3-5.3,0-10.6,0-17.8c1.9,2.4,3.2,3.2,3.4,4.3c1.3,9.1,2.5,18.3,3.6,27.5   c0.5,4.1,1,8.3,1.4,12.4c1.3,14,2.4,27.9,3.8,41.9c1.5,16,3.3,32,4.8,48c0.9,9.2,1.4,18.4,2.1,27.7c1,12.2,2,24.4,3.1,36.5   c0.6,7.7,1.4,15.4,1.9,23.2c0.7,10.7,1.2,21.5,2,32.2c0.8,10.1,2,20.2,2.8,30.3c0.9,10.1,1.5,20.2,2.4,30.3c1.6,19,3.3,38,4.8,57   c0.8,9.8,1.4,19.6,2.1,29.5c0.1,2,0.4,4.1,1.9,6.3c0.3-1.4,1-2.8,1-4.2c-0.2-5.1-1-10.1-1-15.2c-0.1-87.7-0.2-175.4,0.1-263.2   c0.1-36.5,1-73,1.7-109.5c0.3-13.7,0.9-27.5,1.6-41.2c0.1-2.5,1-4.9,1.6-7.3c0.6,0,1.2,0,1.7,0c0.7,1.4,1.5,2.7,2,4.1   c0.3,0.8,0.1,1.8,0.1,2.7c0.6,41.9,0.6,83.8,1.8,125.6c3,105,0.8,210.1,1.7,315.1c0,1.5,0,2.9,1.4,4.7c0.6-2.9,1.4-5.8,1.6-8.8   c0.3-4.5,0-9,0.2-13.5c1.1-18.8,2.1-37.5,3.4-56.3c1.1-17.6,2.3-35.1,3.7-52.7c1.5-18.7,3.2-37.4,4.8-56.1c0.8-9.8,1.2-19.7,2-29.5   c0.9-10.7,2-21.4,3-32.1c0.7-7.7,1.5-15.5,2.1-23.2c1.3-16.4,2.4-32.7,3.8-49.1c2.2-25,4.5-49.9,6.9-74.8c0.5-5,1-10.1,1.9-15.1   c0.4-2.4,1.6-4.7,3.3-6.8c2.9,5.1,1.8,10.3,1.4,15.4c-0.2,3.3-0.8,6.5-1,9.8c-1.2,18.5-2.3,36.9-3.5,55.4c-0.1,1.8,0,3.6-0.2,5.4   c-1.1,18.5-2.2,36.9-3.3,55.4c-0.7,12.8-1.2,25.6-2,38.4c-0.9,14.9-2.1,29.7-3.2,44.6c-0.7,9.5-1.4,19-1.9,28.6   c-0.7,13.4-1.1,26.8-1.9,40.2c-0.9,15.5-2.1,30.9-3.2,46.4c-0.1,1.2-0.2,2.4-0.2,3.6c-0.6,14.9-1.1,29.8-1.9,44.8   c-0.6,10.4-1.5,20.8-2.2,31.1c0.6,0.1,1.2,0.1,1.8,0.2c1.9-11.7,3.9-23.3,5.5-35c2.7-19.5,5-39,7.7-58.5   c2.6-18.6,5.3-37.2,8.2-55.7c3-20,6.2-40,9.4-60c3.7-22.6,7.5-45.3,11.2-67.9c3.7-22.6,7.1-45.3,11.1-67.9   c4.8-27,10-53.9,15.1-80.8c1.2-6.4,2.9-12.8,4.5-19.1c0.5-1.8,1.5-3.4,2.8-6c2.9,4.6,2,8.5,1.5,12.1c-2.5,18.3-5.5,36.5-8.1,54.8   c-2,14.1-3.5,28.4-5.6,42.5c-3.1,21.5-6.6,42.9-9.9,64.4c-3.1,20.6-6.2,41.2-9.2,61.9c-3.9,26.8-7.9,53.6-11.7,80.4   c-2.7,18.9-5,37.8-7.6,56.6c-1.9,13.6-4,27.1-5.9,40.7c-1.5,10.9-3,21.8-4.5,32.7c-0.4,0.6-0.8,1.1-0.2,0.3   c-0.3,1.1-0.1,0.4,0.1-0.3c2.2-8.6,4.8-17.1,6.6-25.7c5.7-26.5,10.9-53.1,16.7-79.6c8.3-37.8,16.8-75.6,25.6-113.3   c6.5-28.1,13.7-56.1,20.3-84.3c7.1-30.5,13.9-61,20.9-91.5c0.8-3.6,2.2-7.1,3.8-12.1c2.8,4.7,2.1,7.9,1.5,10.9   c-7.2,36.2-14.1,72.5-21.7,108.6c-9.5,44.9-19.7,89.6-29.3,134.4c-8,37.3-15.7,74.6-23.6,111.9c-3.1,14.9-6.3,29.7-9.5,44.6   c-0.4,2-0.5,4.1,0.3,6.5c0.7-2.1,1.5-4.2,2.1-6.4c10.7-41.2,21.2-82.5,32.2-123.7c13.6-50.7,27.4-101.3,41.4-151.8   c12.8-46.2,26.1-92.3,39.2-138.4c1.1-3.7,2.4-7.4,4-10.9c0.6-1.3,2.3-2,5-4.3c-11.9,66.8-28.9,130.3-44.7,194   c-15.6,63-49.5,189.8-48.9,190c0.1-0.2,0.4-1.4,0.6-1.8c5.7-18.3,11.3-36.6,17.1-54.9c6.1-19.3,12.3-38.6,18.7-57.8   c6.3-18.9,12.6-37.8,19.3-56.6c6.8-19.1,14-38,21.1-57c6.8-18.5,13.9-36.9,21.4-56.9c3.7,4.8,2.5,7.5,1.6,10.2   c-3.3,9.6-6.5,19.2-9.8,28.8c-12.8,37.8-25.7,75.5-38.4,113.3c-10.7,31.9-21.4,63.8-32,95.7c-6.6,20.1-13,40.2-19.5,60.4   c-0.9,2.8-3.5,11.8-3.5,11.9c0.4,0.1,8.5-18.2,11.4-26c15.1-40.4,31.6-80.2,49-119.6c15.7-35.6,30.8-71.5,45.8-107.4   c10.1-24.1,19.3-48.6,29.1-72.9c3-7.4,6.2-14.8,9.5-22.1c6.8-14.9,13.7-29.7,20.7-44.5c1.3-2.8,2.2-6.3,7.5-5.6   c-1.3,4.3-2.2,8.3-3.7,12c-19.8,51-39.5,102-59.8,152.8c-17,42.5-34.8,84.6-52,127c-4.1,10.1-7.2,20.7-10.8,31   c-0.1,0.2-0.3,0.4-0.4,0.6c0.1-0.2,0.2-0.4,0.3-0.6c4.3-8.4,8.7-16.8,12.8-25.2c7-14.1,13.6-28.4,20.8-42.3   c8.3-16.1,16.9-32,25.5-47.9c13.7-25.3,27.5-50.5,41.4-75.7c3.9-7,8-13.8,12.2-20.7c1.1-1.8,2.8-3.3,5.5-6.4   c-0.2,6.3-1.9,9.9-3.9,13.5c-17.5,33-35,66-52.3,99.1c-16.1,30.7-32.4,61.4-47.9,92.4c-8.6,17.2-16,35.1-23.7,52.8   c-7.2,16.6-14.1,33.4-20.5,50.8c0.9-1.1,2-2.1,2.6-3.4c3.3-7,6.5-14,9.8-21c17.7-37,38.7-72,60-106.9   c16.4-26.7,32.5-53.7,48.4-80.8c25.8-43.9,51.3-88.1,77.2-131.9c4.8-8.1,11-15.3,16.7-22.9c1-1.3,2.5-2.1,4-3.3   c1.8,3.9-0.5,6.3-1.9,8.7c-5.9,10.6-12,21.1-17.9,31.8c-10.4,19-20.6,38.1-31.1,57c-13.8,24.9-27.6,49.7-41.6,74.5   c-11.5,20.4-22.4,41.2-34.8,61c-13.4,21.4-24.8,43.8-36.7,66c-2.2,4.1-6.7,15.5-7.3,16.7c-0.6,1.2-1.2,2.4-1.7,3.6   c-0.1,0.2-0.2,0.3-0.4,0.5c0.1-0.2,0.2-0.4,0.3-0.6c0.6-1.2,1.2-2.4,1.7-3.6c0.6-1.2,1.2-2.4,1.7-3.6c4.2-6.3,8.6-12.6,12.6-19   c16.8-26.5,33.5-53,50.1-79.5c12.4-19.8,24.7-39.7,37.1-59.5c4.5-7.2,9.4-14.1,15.9-20.8c0.1,1.8,0.9,3.8,0.2,5.2   c-1.8,4.1-4,7.9-6.3,11.7c-15.8,26.4-31.3,53.1-47.7,79.2c-11.4,18.3-24.1,35.8-36,53.7c-8.8,13.3-17.6,26.7-25.9,40.3   c-10.6,17.4-20.9,35.1-31.2,52.7c-1.5,2.5-2.4,5.4-3.5,8c-0.1,0.2-0.3,0.4-0.4,0.6c0.1-0.2,0.2-0.4,0.3-0.6   c4.7-6.8,9.5-13.4,14.1-20.3c7.5-11.3,14.6-23,22.4-34.1c8.3-11.8,17.1-23.3,25.8-34.8c5.7-7.5,11.6-14.9,17.2-22.4   c8.7-11.5,17.2-23.3,26-34.7c18-23.4,36-46.7,54.3-69.9c18.2-23.2,36.5-46.3,55.2-69.1c13.4-16.4,27.4-32.3,41.4-48.3   c2.8-3.2,6.4-5.8,9.9-9c2.5,3.7,0.4,5.9-0.9,7.8c-9.3,13-18.6,25.9-28.2,38.6c-11,14.6-22.3,29-33.6,43.3   c-7.1,9-14.7,17.7-21.6,26.9c-9.4,12.5-18.5,25.3-27.7,37.9c-25.4,34.5-50.8,68.9-76.2,103.3c-6.3,8.5-12.8,16.9-19.2,25.4   c-1.8,2.4-3.1,5-4.7,7.5c-0.1,0.2-0.3,0.4-0.4,0.6c0.1-0.2,0.2-0.4,0.3-0.7c3.5-3.4,7.3-6.6,10.5-10.3c8.4-9.5,16.4-19.3,24.7-28.8   c16.5-18.8,32.9-37.7,49.7-56.3c8.9-9.9,18.4-19.1,27.4-28.8c17.5-19.1,34.8-38.3,52.3-57.5c2-2.2,3.6-5.7,8.4-4.8   c-0.8,2-1.1,4-2.2,5.3c-11.2,13.7-22.3,27.4-33.8,40.8c-19.4,22.5-39,44.9-58.6,67.2c-8,9.1-16.2,17.9-24.1,27   c-25.9,29.7-51.8,59.4-77.4,89.4c-4.5,5.3-7.6,11.8-11.4,17.8c-1.2,1.8-2.3,3.6-3.5,5.4c-0.1,0.2-0.3,0.4-0.4,0.6   c0.1-0.2,0.2-0.4,0.3-0.6c1.2-1.8,2.3-3.6,3.5-5.4c6.3-7,12.5-14,18.8-20.9c9.8-10.9,19.5-22,29.5-32.7c10-10.8,20.1-21.5,30.4-32   c19.2-19.5,38.5-38.9,58-58c15.9-15.7,32-31.1,48.3-46.4c23.9-22.6,47.8-45.1,72.1-67.3c12.3-11.3,25.4-21.7,38.2-32.4   c2.2-1.8,4.8-3.2,8.6-5.7c-0.7,2.8-0.7,4.4-1.5,5.2c-10.2,10.9-20.6,21.8-30.9,32.6c-1,1.1-2.1,2-3.2,3.1   c-22.3,22.2-44.6,44.4-66.8,66.8c-30,30.3-59.9,60.7-89.9,91c-12.8,12.9-26,25.5-38.6,38.6c-7.9,8.2-15.1,17.2-22.6,25.8   c-0.6,0.6-1.2,1.2-1.8,1.8c-0.1,0.2-0.2,0.4-0.4,0.5c0.1-0.2,0.2-0.4,0.3-0.6c0.6-0.6,1.2-1.2,1.8-1.8c1.7-1,20.4-17.5,28.2-24.7   c18.4-16.8,36.7-33.7,55.3-50.2c18.6-16.5,37.5-32.7,56.3-49c11.5-10,23-20,34.6-29.8c2.3-1.9,5-3.3,7.6-4.9c0.5,0.5,1,1.1,1.6,1.6   c-1.1,1.8-1.9,3.9-3.4,5.3c-17.4,16.6-34.8,33.2-52.6,49.5c-12.5,11.5-25.4,22.5-38.2,33.7c-9.7,8.5-19.4,16.9-29.1,25.4   c-13.2,11.6-26.4,23.1-39.4,35c-8.4,7.7-16.5,15.8-24.7,23.8c-8.2,8-16.5,15.9-24.5,24c-5.2,5.2-10,10.7-15,16.1   c-0.1,0.2-0.2,0.3-0.4,0.5c0.1-0.2,0.2-0.4,0.3-0.6c4.1-2.8,8.5-5.1,12.1-8.3c18.2-16.1,35.9-32.9,54.5-48.5   c19.9-16.7,40.4-32.9,61.2-48.5c25-18.8,50.4-37,75.8-55.3c25.1-18.1,50.2-36.2,75.6-53.9c16.5-11.5,33.5-22.3,50.3-33.4   c3.4-2.2,7-3.7,12.7-3.8c-2,2.5-2.7,4.1-3.9,5c-15.8,12-31.8,23.9-47.6,35.9c-12.3,9.4-24.6,18.9-36.8,28.5   c-19.3,15.1-38.5,30.5-58,45.5c-26.4,20.3-53.1,40.2-79.4,60.7c-15,11.7-29.5,24-44.1,36.2c-1.2,1-1.9,2.8-2.9,4.2   c-0.1,0.2-0.3,0.4-0.4,0.6c0.1-0.2,0.2-0.4,0.3-0.6c7.6-5.2,15.3-10.5,22.9-15.8c12.7-8.8,25.3-17.8,38-26.5   c21.9-14.9,43.7-30,66-44.5c21.5-14,43.5-27.2,65.3-40.6c2.4-1.5,5.1-2.5,8.4-4c0.6,4.3-2.1,5.2-4,6.6   c-21.7,15.3-43.4,30.6-65.3,45.7c-20.4,14.1-40.9,28.1-61.3,42.1c-29.1,19.9-58.2,39.7-87.4,59.6c-11.1,7.5-22.2,15-33.2,22.7   c-1.9,1.3-3.2,3.3-4.8,5c-0.6,0.6-1.2,1.2-1.8,1.8c-0.7,0.2-1.4,0.4-0.3,0.1c-0.9,0.7-0.3,0.3,0.2-0.2c0.6-0.6,1.2-1.2,1.8-1.8   c5.3-2.9,10.8-5.4,16-8.7c30.4-19,60.6-38.5,91.2-57.1c19.2-11.7,38.8-22.7,58.5-33.2c44.5-23.7,89.1-47.1,134-70.1   c18.9-9.7,38.3-18.2,57.6-27.1c2.7-1.2,5.8-1.6,8.7-2.4c0.3,0.7,0.5,1.4,0.8,2c-4,2.6-7.9,5.4-12.1,7.8   c-32.5,18.9-64.9,37.8-97.6,56.4c-31.6,18-63.6,35.2-95.2,53.2c-20,11.4-39.7,23.3-59.3,35.3c-25.4,15.5-50.6,31.3-75.7,47.2   c-5.1,3.2-9.7,7.3-14.6,11c-1.7,1.2-3.5,2.4-5.2,3.6c-0.7,0.2-1.3,0.4-0.3,0.1c-0.9,0.7-0.3,0.2,0.2-0.2c1.7-1.2,3.5-2.4,5.2-3.6   c3.6-1.8,7.3-3.5,10.8-5.5c27.1-16,53.8-32.8,81.4-47.9c21.6-11.9,44.1-22.3,66.6-32.6c29.3-13.4,58.9-26.2,88.5-39   c10.1-4.4,20.6-8,30.9-11.8c1.4-0.5,3-0.4,5.5-0.6c-2,4.4-5.1,5.3-7.9,6.6c-16.6,7.8-33.3,15.3-49.8,23.2   c-23.1,10.9-46.2,22-69.2,33.1c-36.6,17.8-73.2,35.6-109.8,53.6c-4.2,2-8,4.7-11.7,8c1.6-0.4,3.2-0.7,4.6-1.3   c32.1-13.5,64.1-27.5,96.4-40.5c25.8-10.4,52-19.9,78.2-29.6c22.3-8.2,44.7-16.4,67.2-24.1c25.2-8.7,50.6-16.9,76-25.1   c5.8-1.9,11.8-3.1,17.7-4.4c1.5-0.3,3.1,0.2,6.7,0.6c-3.4,2.3-5,3.9-7,4.8c-12.5,5.5-24.9,11.1-37.6,16   c-36,14-72.2,27.4-108.1,41.7c-24.8,9.9-49.2,20.9-73.7,31.4c-36.9,15.7-73.8,31.4-110.6,47.1c-5.3,2.3-10.5,4.9-15.7,7.4   c0.2,0.6,0.4,1.2,0.7,1.7c21.9-7.9,43.7-16.1,65.7-23.6c21.9-7.5,44-14.7,66.1-21.6c22.4-7,44.8-14,67.5-20.1   c22-5.9,44-12,66.5-15.1c0.2,0.9,0.4,1.8,0.6,2.7c-102.7,32.1-205.4,64.2-310,96.9c2.4,0.1,4.6,0,6.6-0.2   c6.3-0.7,75.6-21.6,105.3-29.1c50.3-12.6,100.7-24.5,151.2-36c29.9-6.8,59.9-12.8,90.1-18.3c19-3.5,38.3-5.5,57.4-8.2   c1-0.1,2.1,0.1,3.4,0.8c-4.1,3.4-9,4.4-13.9,5.6c-30.1,7.1-60.3,13.9-90.3,21.3c-30.3,7.4-60.6,15.3-90.8,23.3   c-28.8,7.6-57.6,15.4-86.4,23.3c-26.5,7.3-82.6,23.4-83.7,25.4c7.8-1.7,15.6-3.5,23.5-5.2c22.9-4.9,45.7-10.2,68.8-14.3   c19.3-3.4,38.9-5.2,58.3-8c17.1-2.5,34.2-5.4,51.3-8c6.6-1,13.2-1.7,19.8-2.5c14.6-1.7,29.2-3.4,43.9-4.9c4.8-0.5,9.7-1.5,15.2,1.4   c-2.8,2.8-5.8,3.1-8.7,3.6c-17.1,2.8-34.2,5.7-51.3,8.5c-23.7,3.8-47.3,7.6-71,11.4c-32.2,5.2-64.4,10.3-96.5,15.8   c-31,5.3-62,11-92.9,16.6c-0.7,0.1-1.4,0.5-2,1.2c11.6,0.3,22.9-2.1,34.2-3.8c15.7-2.4,31.4-4.5,47.2-6.6   c11.1-1.5,22.3-3.1,33.5-4.4c7.7-1,15.5-1.7,23.2-2.5c21.8-2.3,43.6-4.5,65.4-6.8c2.3-0.2,4.6-0.2,6.9-0.4   c13.5-1.1,27-2.3,40.5-3.3c8.9-0.7,17.9-1.3,26.8-2.1c20.1-1.7,40.3-3.4,60.4-5.1c0.6,0,1.2-0.1,1.7-0.1   c23.4-0.7,46.8-1.5,70.2-2.1c2.5-0.1,5,0.3,8.2,0.6c-1.7,4.7-5.1,4.7-8,5c-19.8,2.4-39.5,4.8-59.3,6.9c-8.6,0.9-17.3,1.2-25.9,2   c-16.7,1.6-33.3,3.4-49.9,5.1c-13.2,1.3-26.4,2.5-39.6,3.9c-11.2,1.2-22.3,2.7-33.5,4.1c-8,1-16,1.9-24,3c-9.2,1.3-18.3,2.8-27.4,4   c-12.6,1.7-25.2,3.3-37.7,5c-16,2.1-32,4.3-48,6.5c-10.9,1.5-39.3,5.7-42.5,7.4c3.1,0,6.2,0.3,9.3,0c16.7-1.6,33.3-3.3,49.9-5.1   c27.3-3,54.8-3.4,82.2-3.8c15.3-0.2,30.5-2,45.8-3c4.6-0.3,9.3-0.2,13.9-0.2c23.2,0,46.3-0.2,69.5,0.1c10.1,0.1,20.2,1.1,30.3,1.7   c0.7,0,1.5,0.7,3.3,1.7c-2.3,0.9-3.6,1.8-5,1.9c-14.1,0.6-28.3,1.2-42.4,1.7c-22.8,0.7-45.7,1.1-68.5,2c-24.5,1-49.1,1.7-73.6,3.7   c-32.9,2.8-108.3,4.7-112.9,7c14.1,0,28.3-0.2,42.4,0c28.9,0.5,57.8,1,86.8,1.8c14.1,0.4,28.2,1.1,42.3,1.7   c13.9,0.6,27.7,1.2,41.6,1.8c15.9,0.6,31.8,1.2,47.6,1.8c15,0.6,29.9,1.1,44.9,1.9c19,1,38,2.2,57,3.6c8.6,0.6,17.2,2,25.8,3.1   c1.2,0.2,2.4,1,5.5,2.4c-3.8,0.9-5.6,1.6-7.4,1.7c-5.2,0.2-10.4-0.1-15.6,0.1c-10.4,0.3-20.8,1.2-31.2,1.2c-10.7,0-21.3-1.3-32-1.3   c-52.4-0.1-104.9-1.2-157.2,0.4c-48.6,1.6-97.3,1.9-145.8,0.8c-124.5-2.9-249-0.7-373.4-1.1c-24-0.1-48,2-72,1.2   c-77.6-2.9-155.1-1-232.7-1.3c-19.4-0.1-38.7,1-58.1,1.5c-5.1,0.1-10.2-0.2-16.1-3.5c2.5-1,3.9-1.9,5.4-2.1   c6.5-1.1,13.1-2.4,19.7-2.9c11.5-1,23.1-1.5,34.6-2.2c17.9-1.1,35.7-2.2,53.6-3.3c1.7-0.1,3.5-0.1,5.2-0.1   c30.7,0.1,61.2-1.2,91.8-3.5c10.7-0.8,21.4,0,32.1-0.4c20.8-0.9,97-2.2,114.3-2.2c9.1,0,22.7-4,20.3-4.5c-1.4-0.3-2.9-0.1-4.3-0.1   c-29.8-0.7-111.7-4.2-122.9-5.3c-0.6-0.1-1.2-0.1-1.7-0.2c-12.7-0.6-25.4-1.4-38.1-1.8c-26.6-0.8-53.2-1.2-79.8-2.1   c-12.6-0.4-25.2-1.4-38.1-3.5c2.9-0.6,5.9-1.4,8.8-1.6c35-2.8,70-2,105-1.6c16.7,0.2,33.4,2.2,50.1,2.9c12.4,0.5,63.2,2.5,76.2,3.4   c13.2,1,26.4,1.8,39.7,1c-10-1.4-20.1-2.8-30.1-4.1c-14.9-2-29.7-3.9-44.6-5.9c-12-1.6-24-3.2-36-4.9c-10.6-1.5-21.1-3.2-31.7-4.6   c-16.3-2.2-32.6-4.2-48.9-6.3c-11.2-1.4-22.3-2.9-33.5-4.2c-8.9-1.1-17.8-2-26.6-3c-5.7-0.6-11.5-1.2-17.2-1.8   c-15.5-1.7-31-3.4-46.4-5c-9.5-0.9-19-1.2-28.5-2.2c-9.1-1-18.1-2.4-28.8-3.9c2-2.4,2.8-4.1,3.6-4.1c4.9-0.4,9.8-0.8,14.7-0.6   c8.4,0.3,16.7,1.1,25.1,1.4c17.9,0.8,35.9,0.8,53.7,2.2c22.4,1.7,44.8,4.5,67.2,6.6c10.1,1,20.2,1.2,30.3,2.1   c13.8,1.3,27.5,3,41.3,4.5c14.1,1.5,28.1,2.8,42.2,4.4c16.6,1.9,33.3,3.6,49.8,5.9c18.9,2.6,66,9.9,71.2,8.9   c-1.5-0.7-30.6-7-43.7-9.3c-17.6-3.2-35.3-6.2-52.9-9.3c-17.6-3-35.3-5.9-52.9-8.9c-15.9-2.7-31.9-5.6-47.8-8.2   c-22.8-3.8-45.6-7.6-68.4-11.3c-11.1-1.8-22.2-3.6-33.3-5.5c-1.5-0.3-2.8-1.3-4.3-1.9c0.1-0.6,0.2-1.3,0.3-1.9c2.7,0,5.5-0.2,8.2,0   c13.2,1.2,26.5,2.4,39.6,3.9c13.2,1.5,26.3,3.3,39.5,5.2c22,3.3,43.9,6.9,65.9,10.3c16.5,2.6,33.1,4.8,49.6,7.7   c12.8,2.2,25.5,5.2,38.2,7.8c13.3,2.7,42.7,8.1,44.3,7c-9.1-2.5-18.2-5-27.3-7.4c-20.7-5.5-41.4-10.8-62.1-16.4   c-24.6-6.6-49.2-13.4-73.7-20.2c-18.7-5.2-37.3-11-56.1-15.7c-35.1-8.7-70.4-16.7-105.5-25.2c-11.8-2.8-23.6-5.9-35.3-9   c-2.6-0.7-5.2-1.8-7.5-4.4c1.8-0.3,3.7-1.1,5.4-0.8c20.5,3.1,41.2,5.9,61.6,9.7c28.4,5.3,56.8,10.9,85,17.2   c19.8,4.4,39.3,10,58.9,14.9c21.1,5.2,42.2,10.3,63.3,15.4c10.4,2.5,20.8,5.1,31.2,7.6c20.5,4.8,41.1,9.5,61.7,14.3   c3.6,0.8,7.1,2,10.9,2.3c-10.2-5.6-21.6-7.4-32.4-10.9c-11.6-3.7-23.4-6.6-35.1-9.9c-11.4-3.3-22.8-6.5-34.2-10.1   c-11.6-3.7-23.1-7.8-34.6-11.5c-11.3-3.6-22.7-7-34-10.5c-11.3-3.6-22.7-7.2-34-10.8c-11.6-3.7-23.2-7.5-34.8-11.3   c-11.1-3.7-22.1-7.5-34.4-11.6c4.3-3.1,7.4-2.3,10.3-1.5c30.2,8.2,60.5,16,90.5,24.7c25.3,7.3,50.4,15.3,75.5,23.3   c20.1,6.4,40,13.4,60.1,20c2.4,0.8,11.6,4.9,14.7,3.1c-2.4-0.5-25.4-10.3-34.6-14.3c-17.3-7.5-34.7-14.8-52-22.1   c-29.9-12.7-59.7-25.9-89.8-38.1c-31.2-12.7-62.7-24.5-94-36.9c-21.8-8.6-43.6-17.5-65.4-26.3c-1.7-0.7-3.2-1.9-6.1-3.8   c5.5-1.6,9.3-0.5,12.9,0.6c30.7,9.5,61.6,18.6,92.1,28.7c30,9.9,59.7,20.7,89.4,31.6c14.4,5.3,28.4,11.7,42.7,17.4   c18.9,7.5,37.9,14.5,56.7,22.2c14,5.7,27.7,12.1,41.5,18.1c3.2,1.4,6.6,2.3,9.8,3.4c0.6,0.4,1.1,0.9,0.2,0.2   c1.1,0.3,0.4,0.1-0.3-0.1c-2.5-1.9-58.8-30.6-84.3-43.2c-16.1-8-32.1-16.5-48.2-24.4c-26.4-12.9-52.8-25.6-79.3-38.2   c-9.2-4.4-18.5-8.4-27.8-12.7c-1.7-0.8-3.2-2.1-4.3-4.7c1.7,0.2,3.6,0,5.2,0.6c17.3,6.8,34.7,13.3,51.8,20.7   c25.6,11.1,51.1,22.4,76.4,34.3c15,7,29.6,15.1,44.2,23c15.1,8.2,30.1,16.7,44.9,25.4c20.3,12,40.4,24.4,60.7,36.5   c3,1.8,6.3,2.8,9.5,4.2c1.2,0.6,2.3,1.2,3.5,1.8c0.2,0.1,0.4,0.3,0.6,0.4c-0.2-0.1-0.4-0.2-0.6-0.3   C561.2,656.8,560,656.2,558.8,655.6z M658,556.7c0.1,1.2,0.3,2.4,0.4,3.6c0.4-0.1,0.7-0.2,1.1-0.3   C658.9,558.9,658.4,557.8,658,556.7c-0.2-1.2-0.4-2.4-0.5-3.6c-0.4,0.1-0.7,0.3-1.1,0.4C656.9,554.5,657.5,555.6,658,556.7z    M785.3,535c0.3,0,0.6,0,0.9,0c-0.1-1.6-0.1-3.2-0.2-4.8c-0.2,0-0.4,0-0.7,0C785.3,531.8,785.3,533.4,785.3,535z"
   id="path1"
   style="fill:#f8e8d2;fill-opacity:1" />
	<text
   transform="matrix(0.8579 0 0 1 130.6702 1281.5316)"
   class="st3 st4 st5"
   id="text1"
   style="fill:#f8e8d2;fill-opacity:1">GIHANGA INSTITUTE OF CONTEMPORARY ART</text>
	<path
   class="st3"
   d="M462.9,1030.6c0,4.9,0,8.1,0,11.8c-2,0.4-3.9,1-5.8,1.2c-19.4,2.4-28.3,12.3-28.6,32.5   c-0.2,16.2,0,32.3-0.1,48.5c0,14.4,0,28.7,0,43.7c-2.5,1.8-4.9,3.8-7.6,5.5c-22.4,14.4-47,23.1-72.9,27.2   c-20.6,3.3-41.3,3.7-62.1,0.9c-22-2.9-42.9-8.9-62.8-19.3c-28.6-15-51-36.8-67.6-65.1c-12.2-20.8-20.1-43.4-22.2-67.3   c-1.7-18.9-1.6-38.2,0.9-57.3c2.7-20.4,8.1-39.7,17.9-57.6c22.8-41.9,56.3-71.1,100-87c26.5-9.6,54.1-11.6,82.1-8.9   c11.8,1.1,23.5,1.9,35.2,4.1c16.6,3.1,32.4,8.5,48.8,15.9c2.8,25.7,5.6,51.6,8.5,78.3c-4.8,0.3-8.4,0.5-12.7,0.8   c-1.1-3.6-2.1-6.9-3.1-10.3c-11.2-37.4-36.1-60.1-72.2-68.8c-15.3-3.7-31.3-3.5-47.4-1.1c-24.7,3.7-46.1,13.7-63.1,32.5   c-16.6,18.5-27.5,40.4-34.1,64.8c-7,26.3-8.3,53.1-6.8,80c1.6,28.2,7.9,55.6,21.2,80.6c13.2,24.8,30.1,46.2,55.6,58.4   c13.2,6.3,27,10.8,41.8,10.2c11-0.5,22.1-0.1,32.8-2.1c14.1-2.5,27.1-8.4,37.4-19.5c3.5-3.7,5-7.7,5-12.8   c-0.1-25.7-0.1-51.5,0-77.2c0-11.1-8.2-25-20.9-27.5c-5.9-1.2-11.8-2-18.3-3.1c0-3.5,0-6.9,0-11.5c20.3-0.9,40.5-0.3,60.6-0.4   C422.1,1030.5,442.1,1030.6,462.9,1030.6z"
   id="path2"
   style="fill:#f8e8d2;fill-opacity:1" />
	<path
   class="st3"
   d="M1158.8,1054.8c-36.3,0-72.2,0-108.5,0c-3.7,10.2-7.5,20.2-11.1,30.2c-6.6,18.5-13.3,37-19.6,55.6   c-1.6,4.7-2.6,9.8-3.2,14.8c-2.1,16.5,8.8,29.1,25,29.4c3.1,0.1,6.2,0.4,10,0.7c0.3,4.1,0.5,7.5,0.8,11.7   c-17.5,2-34.1-1.2-50.7-0.7c-16.4,0.5-32.8,1-49.9,1.5c-0.4-4.4-0.7-7.8-1-11.5c2.3-0.6,3.9-1.4,5.6-1.4c14,0.1,22.8-8.3,28.8-19.8   c5.6-10.8,10.3-22.1,14.5-33.5c22-60.1,43.6-120.3,65.4-180.5c8.5-23.5,17.4-46.9,25.8-70.4c4.4-12.3,7.9-25,11.8-37.5   c0.3-0.8,0.8-1.6,1.7-3.4c2.7,0,5.8,0.1,8.9,0c2.9-0.2,5.8-0.4,8.5-1.1c8.1-2.3,11.7-0.7,14.7,7.4c5.9,16.2,11.7,32.5,17.5,48.7   c13.4,37.3,26.8,74.5,40.2,111.8c13.1,36.4,26.1,72.8,39.5,109.1c6,16.2,12.1,32.3,19.3,47.9c2.9,6.2,8.2,11.5,13.1,16.4   c5,5,12,5.1,19.2,4.7c0,4.3,0,8,0,12.7c-20.2,1.2-40-1.7-59.8-1c-19.6,0.7-39.1,1-59.2,1.4c0-4.6,0-7.9,0-11.6   c5-1.2,9.5-2.1,13.9-3.2c14.8-3.6,19-14.5,15.5-27.8c-2-7.8-5.1-15.3-7.8-22.8c-8.9-24.7-17.8-49.3-26.7-73.9   C1160.4,1057.4,1159.7,1056.5,1158.8,1054.8z M1152,1033.5c-16-43.7-31.6-86.5-47.6-130.5c-15.7,44.1-30.9,87.1-46.4,130.5   C1089.6,1033.5,1120.5,1033.5,1152,1033.5z"
   id="path3"
   style="fill:#f8e8d2;fill-opacity:1" />
	<path
   class="st3"
   d="M918,858.5c0.7,2.2,1.4,3.5,1.6,5c1.4,11.7,2.7,23.5,4,35.2c1.1,10.4,2.1,20.7,3,31.1c0.2,2.8-0.1,5.6-0.2,9   c-4.8-0.7-8.4-1.2-12.1-1.7c-1.4-4.9-2.4-9.5-4-14c-8.7-24.1-23.3-43.2-45.5-55.6c-11.1-6.2-23.2-9.7-35.6-10.6   c-20.8-1.5-41.5-0.3-61.5,7.3c-13.3,5.1-24.7,13.2-34.5,23.5c-20.4,21.6-32.2,47.9-38.6,77.1c-4.8,22.1-4.3,44.5-3.7,66.9   c0.7,29.2,7.5,56.8,20.5,82.6c11.5,22.9,26.4,42.9,48.8,55.6c16.4,9.3,33.8,15.5,52.9,14.8c11.2-0.4,22.4,0.4,33.6-2.7   c29.2-8.1,50-26.8,64.2-53.7c5.6-10.7,9.5-22.3,14.7-34.8c2.3-0.2,5.9-0.6,10.2-0.9c0.2,2.9,0.7,5.2,0.4,7.4   c-2.6,17.1-5.2,34.1-8,51.1c-1.2,7-3.1,14-4,21c-1,7.8-5.3,12.1-12.1,14.8c-14.1,5.6-28.5,9.5-43.3,12.7c-22.9,4.9-46.1,5-69.1,3.5   c-35.5-2.3-68.3-13.5-97.5-35.7c-23.7-18-41.5-40.6-53.8-68c-9.7-21.7-15.3-44.4-15.1-68.4c0-6,0-12,0-18   c0.1-34.2,9.5-65.6,28.3-93.5c26.7-39.4,62.4-66.3,108.2-76.9c20.4-4.7,41.2-5.6,62.1-3.5c9.5,1,19,1.3,28.4,2.5   C880.2,844.3,899.1,850.7,918,858.5z"
   id="path4"
   style="fill:#f8e8d2;fill-opacity:1" />
	<path
   class="st3"
   d="M486,855.4c0-3.9,0-7,0-11.2c19.2-1.3,38.1-0.3,57.1-0.5c18.7-0.2,37.5,0,56.9,0c0,4.5,0,8.2,0,12.2   c-2.5,0.3-4.5,0.6-6.4,0.8c-15.2,1.3-24.3,11.2-24.3,27c-0.1,32.9-0.1,65.8-0.1,98.7c0,56,0,111.9,0,167.9c0,3.9,0,7.8,0.1,11.7   c0.5,11.7,7.4,20.2,18.5,22.8c3.9,0.9,7.8,1.7,12,2.6c0,3.4,0,6.5,0,10.1c-38.1,0-75.6,0-113.7,0c-0.2-3.3-0.3-6.2-0.5-9.8   c3.4-1,6.3-2.1,9.3-2.6c17.6-3.1,20.6-10.1,24.1-25c0.8-3.4,0.8-7.1,0.8-10.7c0-86.8,0.1-173.5,0-260.3c0-18.5-10.2-31.3-27.7-32.5   C490.4,856.5,488.8,856,486,855.4z"
   id="path5"
   style="fill:#f8e8d2;fill-opacity:1" />
	
	
	
</g>
</svg>
